<svg xmlns="http://www.w3.org/2000/svg" viewBox="0 0 741 251"><defs><style>.cls-1{fill:#fff;}</style></defs><g id="Layer_3" data-name="Layer 3"><path class="cls-1" d="M-.17,80.53l.39-.39c1.57,0,5.11-.13,7.34-.39s2.75-4.33,2.88-6.16c.39-10.22.39-20.7.39-31.18,0-8.12-.13-22.27-.39-31.44,0-2-.66-6-2.88-6.29S1.79,4.29.22,4.29L-.17,3.9.22,1.15H36.38l.39,2.75-.39.39A93.45,93.45,0,0,0,26.16,5c-2.23.52-3,4.06-3.15,6.28-.39,9.3-.52,21-.52,31.31,0,15.72.39,29.35.66,37.6H36.77c8.51,0,20-2.23,22.66-14.94.39-1.57.92-6.15,1-7.59l.39-.4,2.62.27v25.8H.22Z"/><path class="cls-1" d="M72.14,55.64c0-17,9.82-29.08,26.59-29.08s26.59,12.05,26.59,29.08-9.82,29-26.59,29S72.14,72.67,72.14,55.64Zm41.39,0c0-18.86-5.37-25.94-14.8-25.94s-14.8,7.08-14.8,25.94,5.37,25.81,14.8,25.81S113.53,74.51,113.53,55.64Z"/><path class="cls-1" d="M179,84.33c.13-.92.53-10.09.53-11-4.06,8.38-10.74,11.26-18.34,11.26-12.05,0-19.91-6.55-19.91-20.83V49c0-3.93-.13-8.12-.13-11.79,0-2.88-.27-5.76-2.36-6-1.84-.27-3.67-.4-5.64-.53l-.39-.39.26-2.36h5.24a63.37,63.37,0,0,0,14.15-1.44l.39.39c-.26,2.88-.65,7.6-.65,11.66V60.1c0,11.13,1.7,20.3,11.66,20.3,6.15,0,11.79-4.06,13.88-10.87a21.36,21.36,0,0,0,.92-6c.13-4.06.26-8.51.26-12.44,0-4.46-.13-10.88-.26-13.89S178.38,31.41,176,31a63.33,63.33,0,0,0-7.2-.39l-.4-.39.26-2.36h7.21a65.53,65.53,0,0,0,14.28-1.44l.39.39c-.26,2.88-.52,7.08-.52,10.74-.13,4.2-.26,9.7-.26,14.54,0,7.34.13,17.17.39,21.49.13,3.27.26,5.89,3.14,6.55a39.48,39.48,0,0,0,5.9.39l.39.39-.26,2.36h-5.77a59.83,59.83,0,0,0-14.14,1.44Z"/><path class="cls-1" d="M207.85,80.92l.4-.39a50,50,0,0,0,6.68-.52c2.49-.4,2.62-3.41,2.75-5.64.13-4.19.26-10.48.26-15.32,0-7.34-.13-17-.39-21.49-.13-3.27-.27-5.89-3.15-6.55a40,40,0,0,0-6-.39l-.4-.39.27-2.36h6.68a66,66,0,0,0,14.41-1.44l.39.39c-.26,3.67-.53,7.08-.66,10.74-.13,5-.26,15.33-.26,18.08,0,5.77,0,15.72.13,18.47.13,2.49.26,5.77,2.62,6,1.71.13,4.72.39,7.08.39l.39.39-.26,2.36H208.11Zm7-73.75a7.51,7.51,0,0,1,7.59-7.59,7.6,7.6,0,1,1,0,15.19A7.51,7.51,0,0,1,214.8,7.17Z"/><path class="cls-1" d="M246.1,74.77c0-3.8,3.15-7.08,7.34-8.91L255.8,67a20.42,20.42,0,0,0-.13,2.75c0,6.42,1.7,11.66,11.13,11.66,8.12,0,13.49-4.19,13.49-9.43,0-4.06-2.62-7-8.12-9.17-4.71-2-8.12-3.28-10.87-4.33-9.56-3.53-13.89-8.38-13.89-15.85,0-8.25,6.68-16.11,20.31-16.11s18.34,4.72,18.34,9c0,3.41-3.41,6.68-6.42,8.25L277,42.94c0-7.08-1-13.24-10.22-13.24-8,0-12.05,4.59-12.05,9.31,0,4.06,2.36,6.41,8.51,8.64,4.85,1.83,8.65,3.41,11.27,4.45,8.78,3.67,13.36,8,13.36,15.86,0,8.12-6.68,16.63-21.61,16.63C252.78,84.59,246.1,80.4,246.1,74.77Z"/><path class="cls-1" d="M299,55.9c0-17.29,10.35-29.34,27.38-29.34,14.54,0,19.65,8.25,19.65,19.39a36.61,36.61,0,0,1-.4,4.45L344.09,52H310.42v1.71c0,16,5,27.38,17.43,27.38,7.73,0,13.23-3.15,16.9-9.31l2.09,1.31c-4.45,8.26-11.26,11.53-20.83,11.53C308.2,84.59,299,71.89,299,55.9Zm35.89-8.25a34.62,34.62,0,0,0,.13-3.67c0-7.59-2-14.14-8.91-14.14-9.3,0-14.54,8.12-15.59,19.78Z"/><path class="cls-1" d="M474.73,240.61c0-5.37,5-9.69,9.83-11l2.35,1.18c-.13,2.62-.39,5.64-.39,8.52,0,4.45.92,8,5.5,8,7.47,0,11.66-7.34,11.92-18.73.27-14.81.4-37.21.4-43.76,0-8.9-.13-22.13-.4-32,0-1.83-.65-5.63-3.27-5.89a80.06,80.06,0,0,0-9.3-.66l-.4-.39.4-2.75h35.5l.39,2.75-.39.39c-1.57,0-5.11.13-7.34.39s-3,4.33-3,6.69c-.26,9.16-.52,22.26-.52,31,0,5.9.26,29.61.26,36.55,0,19.65-11.14,29.6-25.42,29.6C480.63,250.56,474.73,246.77,474.73,240.61Z"/><path class="cls-1" d="M533.29,197.64c0-17,9.82-29.08,26.59-29.08s26.59,12.05,26.59,29.08-9.82,29-26.59,29S533.29,214.67,533.29,197.64Zm41.39,0c0-18.86-5.37-25.94-14.8-25.94s-14.8,7.08-14.8,25.94,5.37,25.81,14.8,25.81S574.68,216.51,574.68,197.64Z"/><path class="cls-1" d="M594.6,222.92l.39-.39a55.94,55.94,0,0,0,6.94-.52c2.49-.4,2.75-3.41,2.75-5.64.13-4.19.27-22.13.27-28.55,0-13.76-.14-30.26-.4-42.18,0-3.15-.26-6.16-3.4-6.68a40.59,40.59,0,0,0-6.16-.4l-.39-.39.26-2.36h7.2a61,61,0,0,0,14.41-1.44l.4.39c-.79,11-1,24.37-1,31.84,0,3.53-.13,9.3-.13,12.44a19.93,19.93,0,0,1,18.07-10.48c12.45,0,20.83,6.68,20.83,20.7,0,5-.13,12.44-.13,14.93,0,3.8,0,7.6.26,12.32.13,1.57,0,5.37,2.62,5.63,1.18.13,4.72.39,6.29.39l.39.39-.26,2.36H634.42l-.26-2.36.39-.39c2.75-.13,4.32-.26,5.9-.39,2.35-.13,2.61-3.67,2.75-6.16.13-3.67.26-8.78.26-14.15V191c0-10.61-2.36-18.21-12.32-18.21-7.2,0-14.93,6.16-15.32,18.73-.13,1.84-.13,6.29-.13,10.48,0,5.24.13,11.4.26,14.15.13,2.49.26,5.77,2.62,6,1.83.13,4.06.39,6.29.39l.39.39-.26,2.36H594.86Z"/><path class="cls-1" d="M671.76,222.92l.39-.39a52.52,52.52,0,0,0,6.55-.52c2.49-.4,2.62-3.41,2.75-5.64.13-4.19.26-10.48.26-15.32,0-7.34-.26-17.16-.39-21.49,0-3.27-.26-5.89-3.15-6.55a40,40,0,0,0-6-.39l-.39-.39.26-2.36h5.89a56,56,0,0,0,14.28-1.44l.39.39c-.13.92-.52,9.83-.52,10.48,3.67-7.2,10.61-10.74,18.73-10.74,12.18,0,20.57,6.68,20.57,20.7,0,5-.13,12.44-.13,14.93,0,3.8,0,7.6.26,12.32.13,1.57,0,5.37,2.62,5.63,1.18.13,4.72.39,6.29.39l.39.39-.26,2.36H711.18l-.26-2.36.4-.39c2.75-.13,4.32-.26,5.89-.39,2.36-.13,2.62-3.67,2.75-6.16.13-3.67.26-8.78.26-14.15V191c0-10.61-2.35-18.21-12.31-18.21-7.47,0-14.93,5.9-15.2,17.29-.13,3.28-.26,7.73-.26,12.06,0,5,.13,11.26.26,14,.14,2.49.27,5.77,2.62,6,1.71.13,4.2.39,6.42.39l.4.39-.27,2.36H672Z"/><path class="cls-1" d="M334.15,144.89c0-28.42,17-43.9,41.35-45.17A39.86,39.86,0,0,1,371.69,83c0-11.66,8.27-22.26,31.81-22.26,13.57,0,26.72,5.93,26.72,18.23,0,7.43-6.79,13.58-10.61,15.7l-2.75-1.7c.21-2.33.42-5.3.42-8.06,0-9.75-1.7-19.08-15.06-19.08-14.2,0-22.9,11.66-22.9,26.72a34,34,0,0,0,.85,7.21c14.21,1.27,21,7.63,21,13.14,0,3.61-2.54,6.37-7,6.37-5.52,0-12.73-5.3-17-15.06-19.51.85-30.11,16.54-30.11,40.29,0,29.48,18.87,48.35,50,48.35,42.42,0,54.51-21.2,54.51-43.68a114.92,114.92,0,0,0-1.28-18.24H428.73c-14.21,0-26.29,3.18-26.29,15.91,0,8.69,5.09,16.11,17.17,16.11a29.94,29.94,0,0,0,3.61-.21l.21,3.18a27.79,27.79,0,0,1-4.88.43c-13.57,0-21.2-8.28-21.2-20.15,0-19.51,15.9-27.36,43.26-27.36h19.08c20.78,0,34.15-8.27,34.15-27.78,0-14.63-10.18-25.23-26.51-25.23-10.39,0-14,8.48-14,18.87,0,3,0,4.24.21,7.21l-3,1.7c-4.45-3-9.75-8.27-9.75-15.27,0-9.76,8.06-17.6,23.54-17.6C492.14,60.7,500,78.93,500,92.93c0,22.06-12.3,38-39.87,38a84.2,84.2,0,0,1,1.48,16.54c0,24.39-16.33,50.47-64,50.47C352,197.9,334.15,168.21,334.15,144.89Z"/></g></svg>