<svg id="Layer_1" data-name="Layer 1" xmlns="http://www.w3.org/2000/svg" viewBox="0 0 741 330"><defs><style>.cls-1{fill:#f7d75d;}.cls-2{fill:#8b8c6a;}.cls-3{fill:#707053;}.cls-4{fill:#fff;}</style></defs><path class="cls-1" d="M246.69,153.07c7.28,1.29,13.95,3.84,20.55,6.57,5.19,2.15,10.66,2.47,16.17,2.67,3,.11,5.91.37,8.86.68,10.55,1.09,17.55,11.7,11.41,23.22A94,94,0,0,1,298,195.1a30.09,30.09,0,0,0-5.74,15.19c-.28,3.82-1.11,7.6-1.77,11.39-1.09,6.19-4.48,11.42-7.37,16.81a103.35,103.35,0,0,1-7.37,11.68c-6.5,8.94-15.54,14.76-25.24,19.62a189.71,189.71,0,0,1-31.17,12.49,73.75,73.75,0,0,1-39.05,1.11c-5.65-1.39-11.21-3.16-16.76-4.91a32.13,32.13,0,0,0-14-1.17,70.38,70.38,0,0,1-10.14.73,16.05,16.05,0,0,1-15-9.6c-2.45-5.12-1.17-10.28,2-14.93a56,56,0,0,0,4-6.38c2.42-4.84,2.78-10.15,2.72-15.44a84.33,84.33,0,0,1,4.93-28.11c1.42-4.16,4.2-8,6.82-11.58,4.12-5.69,8.52-11.18,13-16.57a19,19,0,0,1,5.53-4.53c9.68-5.19,19.4-10.29,29.25-15.15a42.21,42.21,0,0,1,9.68-3c4.93-1.07,9.94-1.77,14.92-2.64a49.54,49.54,0,0,1,22.51,1.18C242.2,151.94,244.55,152.51,246.69,153.07Z"/><path class="cls-2" d="M264.93,158.3a49.46,49.46,0,0,0,14.42-6.39l.91-.61a81.55,81.55,0,0,0,7.27-7.94A88.92,88.92,0,0,0,298,126.26c3.1-6.48,5.8-13.17,9.52-19.33a86.46,86.46,0,0,1,13-16.08c5.1-5.13,10.42-10,15.67-15l16.4-15.55,32.6-30.93c9.63-9.13,19.17-18.76,30.72-25.5,1.4-.82,2.82-1.58,4.27-2.31.73-.36.34-1.61-.48-1.37-13.44,4-26.88,8.14-39.87,13.47C367.13,18.88,354.76,25.34,344,34a98.37,98.37,0,0,0-15.07,15c-5.24,6.48-9.73,13.52-14.3,20.47l-14.5,22.1c-4.64,7.08-9.37,14.12-13.56,21.48a140.46,140.46,0,0,0-9.89,21.87c-2.57,7.1-5.12,14.39-9.67,20.52a33.5,33.5,0,0,1-2.55,3Z"/><path class="cls-3" d="M460.92,215.42a420.86,420.86,0,0,0,50.76,10.84c17.2,2.58,34.53,3.63,51.84,5.2s34.77,3.95,51.06,10.3c2,.79,4,1.65,6,2.55.74.34,1.15-.66.78-1.18-8.59-12.09-20.82-20.77-34.14-27-14-6.51-28.94-10.49-43.9-13.87-17.79-4-35.67-7.62-53.59-11q-27.15-5.13-54.47-9.42-19.49-3-39-5.65c-1.29,0-2.59-.06-3.88,0a150,150,0,0,0-17.84,1.73c-1.24.21-2.48.44-3.72.66a419.53,419.53,0,0,0,40.8,19.71A421.16,421.16,0,0,0,460.92,215.42Z"/><path class="cls-2" d="M458.89,328.77q2.78.89,5.58,1.7c.65.19,1.32-.64.78-1.18q-16-15.89-32.36-31.49T400,266.86q-16.56-15.35-33.38-30.4c-11.06-9.9-22.07-20-33.52-29.41a125.36,125.36,0,0,0-13.35-9.8q-2.28-1.08-4.57-2.13c-2.25-1-4.53-2-6.86-2.81-1.89-.68-3.83-1.2-5.74-1.84s-3.6-1.23-5.45-1.69a14,14,0,0,0-4.72-.56,21,21,0,0,0,.74,5c1.45,5.48,4.46,10.36,7.2,15.3L312.44,224c4.87,6.26,9.72,12.54,14.61,18.78a128.13,128.13,0,0,0,15.16,16.59c11,9.87,23.63,17.91,35.86,26.18,12.76,8.64,25.68,17.09,39.15,24.6A233.76,233.76,0,0,0,458.89,328.77Z"/><path class="cls-2" d="M514.43,42.06c15.7-1.6,32.7-4.35,47.72,2.06a.74.74,0,0,1-.08,1.42q-2.49.78-5,1.62A297.47,297.47,0,0,0,517.87,63.6c-13.2,6.68-25.72,14.51-38.16,22.49l-39.37,25.26c-12.43,8-24.77,16.13-37.41,23.78-11.9,7.19-24.24,13.75-37.42,18.29a.63.63,0,0,1-.45,0,10.16,10.16,0,0,1-2,.29.74.74,0,0,1-.57-1.14l3.71-4.95q15.1-20,31.32-39.12c10.73-12.65,21.78-25,33.22-37C436,65.93,441.54,60.55,448,56.34a64.6,64.6,0,0,1,20-8.33,161.71,161.71,0,0,1,21.45-3.39C497.73,43.74,506.08,42.91,514.43,42.06Z"/><path class="cls-3" d="M432.52,142.87c2.58-.12,5.16-.29,7.82-.29,6.28,0,12.36-1.85,18.45-3.15q12.24-2.6,24.42-5.42c16.4-3.8,32.83-7.68,48.9-12.69,7.89-2.45,15.6-5.32,23.26-8.39s15.09-5.83,23.07-7.37c15.39-3,31.15-2.15,46.74-2.55a324.61,324.61,0,0,0,49-5q3.08-.56,6.14-1.16a.74.74,0,0,0,.25-1.33c-8-5.42-17.61-7.24-26.93-9.06-8.32-1.62-16.64-3.21-25-4.64C611.88,79,595,76.73,578,76.33c-16.57-.38-33.28,1-49.3,5.49-17.95,5-34.08,14.25-50,23.68q-25.45,15.06-49.81,31.89-3.06,2.12-6.11,4.26a.74.74,0,0,0-.16.91A51.43,51.43,0,0,0,432.52,142.87Z"/><path class="cls-2" d="M698.79,131.67a.73.73,0,0,1,.31,1.43l-4.4,1.25a.75.75,0,0,1-.9,1l-1.34-.38-1.27.36-31.36,8.88c-10.1,2.85-20.18,6.05-30.46,8.22-10,2.1-20,2.11-30.12,2.79a115.2,115.2,0,0,0-28.32,5.93c-8.95,2.92-17.77,6.32-26.91,8.64a118.67,118.67,0,0,1-28.48,3.4c-20.09.12-40.17-3.21-60-5.85q-32.36-4.29-64.63-9.14c-.67-.1-1-1.05-.29-1.38q3.17-1.44,6.44-2.63a143.17,143.17,0,0,1,26.3-6.33c9.64-1.54,19.34-2.79,29-4.1,20.3-2.77,40.63-5.37,61-7.37s40.55-3.31,60.87-4.27,40.9-1.57,61.36-2.14c17.95-.5,36.3-1.44,53.89,2.72C692.58,132.45,695.69,132.11,698.79,131.67Z"/><path class="cls-3" d="M205.4,154a81.12,81.12,0,0,0,15.52-3.6,82.49,82.49,0,0,0,24.24-12.95c7.76-6,14.15-13.54,20.06-21.33,6-7.95,11.62-16.23,18.07-23.85a96.68,96.68,0,0,1,10.39-10.64c3.76-3.27,8.16-5.89,11.48-9.64a19.42,19.42,0,0,0,2.2-3,.74.74,0,0,0-.76-1.12,91.53,91.53,0,0,0-47.13,25.2c-7.15,7.18-13.17,15.36-19.19,23.49-5.66,7.63-11.37,15.27-18.11,22a71.14,71.14,0,0,1-19.43,14.28l-2.07.18C202.22,153.42,203.81,153.72,205.4,154Z"/><path class="cls-3" d="M451,245a445.39,445.39,0,0,0,47.79,5.16c15.45.75,31,.25,46.26-2.74,1.9-.37,3.79-.79,5.68-1.24.65-.15.83-1.25.07-1.41-15.37-3.25-30.75-6.49-45.95-10.52-7.59-2-15.13-4.2-22.57-6.69-7.29-2.42-14.49-5.1-21.75-7.57a204,204,0,0,0-22.5-6.43c-7.53-1.63-15.14-2.81-22.68-4.37-15.14-3.13-29.68-8.51-44.26-13.52l-32.76-11.27c-1.46-.18-2.91-.41-4.36-.68a108.65,108.65,0,0,0-13-2.06c-1.57-.09-3.15-.09-4.72,0,13.6,9.82,27.43,19.37,41.81,28A302.1,302.1,0,0,0,402.41,232,228.71,228.71,0,0,0,451,245Z"/><path class="cls-3" d="M441.74,15.1a168.55,168.55,0,0,1,43.35-9.37c.78-.06.87,1.07.29,1.39q-2.46,1.35-4.86,2.83c-12.95,8-24,18.62-35.92,28.05a167.79,167.79,0,0,1-18.94,13c-6.92,4.1-14,8-20.32,13-12.06,9.53-21,22.26-29.24,35.05-7.83,12.1-15.28,24.49-24.81,35.36-8.52,9.72-18.7,18.14-30.88,22.7l-5.86,3.8a.74.74,0,0,1-1-.88l2.74-6.2q10.92-24.79,21.86-49.6c3.49-7.92,6.8-16,11-23.54a83.78,83.78,0,0,1,14.53-19.17,138.15,138.15,0,0,1,18.36-15c6.23-4.35,12.66-8.45,19.21-12.3A233.71,233.71,0,0,1,441.74,15.1Z"/><path class="cls-3" d="M359,308c1.53.5,3.06,1,4.6,1.43a.73.73,0,0,0,.64-1.3q-14.89-11.91-28.76-25T309.13,256q-12.64-14.18-24.07-29.39c-7.58-10.08-14.4-20.86-23.18-30a69.2,69.2,0,0,0-12.61-10.44c-.58-.33-1.16-.66-1.76-1a68.9,68.9,0,0,0-17-6l-.77-.08-.65-.23c-3.53-.75-7.09-1.31-10.66-1.77a.48.48,0,0,0,0,.17,219,219,0,0,0,18.09,35.23,230.45,230.45,0,0,0,23.94,31.43,233.52,233.52,0,0,0,28.95,26.93,229.57,229.57,0,0,0,33.16,21.67A220,220,0,0,0,359,308Z"/><path class="cls-2" d="M120,155.37c12.45.92,25.07,1.27,37.2,4.45l.84.23c6,1,11.95,2.1,17.85,3.46a173.63,173.63,0,0,1,19.53,5.64A142.26,142.26,0,0,1,211,175.81l.66-.15c1.49-.46,3-.93,4.47-1.41.09-.18.17-.36.25-.54a.73.73,0,0,0-.46-.93,41.11,41.11,0,0,1-16.28-7.27c9.26.23,18.5,1.08,27.73,1.81l15.25,1.19c4.94.39,9.88.72,14.79,1.42a57.85,57.85,0,0,1,13.84,3.56,25.88,25.88,0,0,1,5,3.26l.82.27a56.09,56.09,0,0,1,12.13,5.66.82.82,0,0,0-.32-.73,23.86,23.86,0,0,1-6.16-7.35c10.86.76,21.75,1.49,32.65,1.37,5.6-.07,11.21-.35,16.79-1,5.39-.59,10.73-1.66,16.13-2.21,5.86-.59,11.92-.46,17.35,2.06a.74.74,0,0,0,1-.85,6.91,6.91,0,0,0-4-4.43,84.29,84.29,0,0,1,11.95-3.6c.39-.44.79-.88,1.19-1.31,1.49-1.62,3.44-2.85,4.69-4.68a.75.75,0,0,0-.51,0c-2.06.74-4.13,1.42-6.21,2.07,4.47-3.6,9.9-5.88,15.11-8.21l11.17-5c3.73-1.67,7.55-3,11.18-4.72,2.88-1.38,6.23-1.27,9.33-2a8.54,8.54,0,0,0-3.59-.86c-8.17-.53-16.38,2.86-23.75,6.07a183.78,183.78,0,0,0-21.33,11.35c-3.6,2.19-7.16,4.44-10.72,6.7a185.28,185.28,0,0,1-26.43,3.78c-8,.58-15.94.72-23.91.56l-4.13.14a.49.49,0,0,1-.38-.76,41.25,41.25,0,0,1,3-3.73,8.93,8.93,0,0,0,1-1.6l-1.12.28a159.56,159.56,0,0,1-26,4.08c-9.15-.82-18.27-1.85-27.39-2.95,1.5-.43,3-.94,4.45-1.51.77-.31,1.55-.63,2.31-1a1.53,1.53,0,0,0,1-1.84c-.61-1.89-3.11-1-4.48-.74q-2.73.51-5.47.92-5.4.82-10.84,1.24-3.75.3-7.51.4l-49.51-6.07-54.62-6.7-6.83-.83H124a5.08,5.08,0,0,0-4.65,5.75A.75.75,0,0,0,120,155.37Z"/><path class="cls-4" d="M-.17,133.53l.39-.39c1.57,0,5.11-.13,7.34-.39s2.75-4.33,2.88-6.16c.39-10.22.39-20.7.39-31.18,0-8.12-.13-22.27-.39-31.44,0-2-.66-6-2.88-6.29s-5.77-.39-7.34-.39l-.39-.39.39-2.75H36.38l.39,2.75-.39.39A93.45,93.45,0,0,0,26.16,58c-2.23.52-3,4.06-3.15,6.28-.39,9.3-.52,21-.52,31.31,0,15.72.39,29.35.66,37.6H36.77c8.51,0,20-2.23,22.66-14.94.39-1.57.92-6.15,1-7.59l.39-.4,2.62.27v25.8H.22Z"/><path class="cls-4" d="M72.14,108.64c0-17,9.82-29.08,26.59-29.08s26.59,12,26.59,29.08-9.82,29-26.59,29S72.14,125.67,72.14,108.64Zm41.39,0c0-18.86-5.37-25.94-14.8-25.94s-14.8,7.08-14.8,25.94,5.37,25.81,14.8,25.81S113.53,127.51,113.53,108.64Z"/><path class="cls-4" d="M179,137.33c.13-.92.53-10.09.53-11-4.06,8.38-10.74,11.26-18.34,11.26-12.05,0-19.91-6.55-19.91-20.83V102c0-3.93-.13-8.12-.13-11.79,0-2.88-.27-5.76-2.36-6-1.84-.27-3.67-.4-5.64-.53l-.39-.39.26-2.36h5.24a63.37,63.37,0,0,0,14.15-1.44l.39.39c-.26,2.88-.65,7.6-.65,11.66V113.1c0,11.13,1.7,20.3,11.66,20.3,6.15,0,11.79-4.06,13.88-10.87a21.36,21.36,0,0,0,.92-6c.13-4.06.26-8.51.26-12.44,0-4.46-.13-10.88-.26-13.89S178.38,84.41,176,84a63.33,63.33,0,0,0-7.2-.39l-.4-.39.26-2.36h7.21a65.53,65.53,0,0,0,14.28-1.44l.39.39c-.26,2.88-.52,7.08-.52,10.74-.13,4.2-.26,9.7-.26,14.54,0,7.34.13,17.17.39,21.49.13,3.27.26,5.89,3.14,6.55a39.48,39.48,0,0,0,5.9.39l.39.39-.26,2.36h-5.77a59.83,59.83,0,0,0-14.14,1.44Z"/><path class="cls-4" d="M207.85,133.92l.4-.39a50,50,0,0,0,6.68-.52c2.49-.4,2.62-3.41,2.75-5.64.13-4.19.26-10.48.26-15.32,0-7.34-.13-17-.39-21.49-.13-3.27-.27-5.89-3.15-6.55a40,40,0,0,0-6-.39l-.4-.39.27-2.36h6.68a66,66,0,0,0,14.41-1.44l.39.39c-.26,3.67-.53,7.08-.66,10.74-.13,5-.26,15.33-.26,18.08,0,5.77,0,15.72.13,18.47.13,2.49.26,5.77,2.62,6,1.71.13,4.72.39,7.08.39l.39.39-.26,2.36H208.11Zm7-73.75a7.51,7.51,0,0,1,7.59-7.59,7.6,7.6,0,1,1,0,15.19A7.51,7.51,0,0,1,214.8,60.17Z"/><path class="cls-4" d="M246.1,127.77c0-3.8,3.15-7.08,7.34-8.91L255.8,120a20.42,20.42,0,0,0-.13,2.75c0,6.42,1.7,11.66,11.13,11.66,8.12,0,13.49-4.19,13.49-9.43,0-4.06-2.62-7-8.12-9.17-4.71-2-8.12-3.28-10.87-4.33-9.56-3.53-13.89-8.38-13.89-15.85,0-8.25,6.68-16.11,20.31-16.11s18.34,4.72,18.34,9c0,3.41-3.41,6.68-6.42,8.25L277,95.94c0-7.08-1-13.24-10.22-13.24-8,0-12.05,4.59-12.05,9.31,0,4.06,2.36,6.41,8.51,8.64,4.85,1.83,8.65,3.41,11.27,4.45,8.78,3.67,13.36,8,13.36,15.86,0,8.12-6.68,16.63-21.61,16.63C252.78,137.59,246.1,133.4,246.1,127.77Z"/><path class="cls-4" d="M299,108.9c0-17.29,10.35-29.34,27.38-29.34,14.54,0,19.65,8.25,19.65,19.39a36.61,36.61,0,0,1-.4,4.45L344.09,105H310.42v1.71c0,16,5,27.38,17.43,27.38,7.73,0,13.23-3.15,16.9-9.31l2.09,1.31c-4.45,8.26-11.26,11.53-20.83,11.53C308.2,137.59,299,124.89,299,108.9Zm35.89-8.25a34.62,34.62,0,0,0,.13-3.67c0-7.59-2-14.14-8.91-14.14-9.3,0-14.54,8.12-15.59,19.78Z"/><path class="cls-4" d="M474.73,293.61c0-5.37,5-9.69,9.83-11l2.35,1.18c-.13,2.62-.39,5.64-.39,8.52,0,4.45.92,8,5.5,8,7.47,0,11.66-7.34,11.92-18.73.27-14.81.4-37.21.4-43.76,0-8.9-.13-22.13-.4-32,0-1.83-.65-5.63-3.27-5.89a80.06,80.06,0,0,0-9.3-.66l-.4-.39.4-2.75h35.5l.39,2.75-.39.39c-1.57,0-5.11.13-7.34.39s-3,4.33-3,6.69c-.26,9.16-.52,22.26-.52,31,0,5.9.26,29.61.26,36.55,0,19.65-11.14,29.6-25.42,29.6C480.63,303.56,474.73,299.77,474.73,293.61Z"/><path class="cls-4" d="M533.29,250.64c0-17,9.82-29.08,26.59-29.08s26.59,12.05,26.59,29.08-9.82,28.95-26.59,28.95S533.29,267.67,533.29,250.64Zm41.39,0c0-18.86-5.37-25.94-14.8-25.94s-14.8,7.08-14.8,25.94,5.37,25.81,14.8,25.81S574.68,269.51,574.68,250.64Z"/><path class="cls-4" d="M594.6,275.92l.39-.39a55.94,55.94,0,0,0,6.94-.52c2.49-.4,2.75-3.41,2.75-5.64.13-4.19.27-22.13.27-28.55,0-13.76-.14-30.26-.4-42.18,0-3.15-.26-6.16-3.4-6.68a40.59,40.59,0,0,0-6.16-.4l-.39-.39.26-2.36h7.2a61,61,0,0,0,14.41-1.44l.4.39c-.79,11-1,24.37-1,31.84,0,3.53-.13,9.3-.13,12.44a19.93,19.93,0,0,1,18.07-10.48c12.45,0,20.83,6.68,20.83,20.7,0,5-.13,12.44-.13,14.93,0,3.8,0,7.6.26,12.32.13,1.57,0,5.37,2.62,5.63,1.18.13,4.72.39,6.29.39l.39.39-.26,2.36H634.42l-.26-2.36.39-.39c2.75-.13,4.32-.26,5.9-.39,2.35-.13,2.61-3.67,2.75-6.16.13-3.67.26-8.78.26-14.15V244c0-10.61-2.36-18.21-12.32-18.21-7.2,0-14.93,6.16-15.32,18.73-.13,1.84-.13,6.29-.13,10.48,0,5.24.13,11.4.26,14.15.13,2.49.26,5.77,2.62,6,1.83.13,4.06.39,6.29.39l.39.39-.26,2.36H594.86Z"/><path class="cls-4" d="M671.76,275.92l.39-.39a52.52,52.52,0,0,0,6.55-.52c2.49-.4,2.62-3.41,2.75-5.64.13-4.19.26-10.48.26-15.32,0-7.34-.26-17.16-.39-21.49,0-3.27-.26-5.89-3.15-6.55a40,40,0,0,0-6-.39l-.39-.39.26-2.36h5.89a56,56,0,0,0,14.28-1.44l.39.39c-.13.92-.52,9.83-.52,10.48,3.67-7.2,10.61-10.74,18.73-10.74,12.18,0,20.57,6.68,20.57,20.7,0,5-.13,12.44-.13,14.93,0,3.8,0,7.6.26,12.32.13,1.57,0,5.37,2.62,5.63,1.18.13,4.72.39,6.29.39l.39.39-.26,2.36H711.18l-.26-2.36.4-.39c2.75-.13,4.32-.26,5.89-.39,2.36-.13,2.62-3.67,2.75-6.16.13-3.67.26-8.78.26-14.15V244c0-10.61-2.35-18.21-12.31-18.21-7.47,0-14.93,5.9-15.2,17.29-.13,3.28-.26,7.73-.26,12.06,0,5,.13,11.26.26,14,.14,2.49.27,5.77,2.62,6,1.71.13,4.2.39,6.42.39l.4.39-.27,2.36H672Z"/><path class="cls-4" d="M334.15,197.89c0-28.42,17-43.9,41.35-45.17A39.86,39.86,0,0,1,371.69,136c0-11.66,8.27-22.26,31.81-22.26,13.57,0,26.72,5.93,26.72,18.23,0,7.43-6.79,13.58-10.61,15.7l-2.75-1.7c.21-2.33.42-5.3.42-8.06,0-9.75-1.7-19.08-15.06-19.08-14.2,0-22.9,11.66-22.9,26.72a34,34,0,0,0,.85,7.21c14.21,1.27,21,7.63,21,13.14,0,3.61-2.54,6.37-7,6.37-5.52,0-12.73-5.3-17-15.06-19.51.85-30.11,16.54-30.11,40.29,0,29.48,18.87,48.35,50,48.35,42.42,0,54.51-21.2,54.51-43.68a114.92,114.92,0,0,0-1.28-18.24H428.73c-14.21,0-26.29,3.18-26.29,15.91,0,8.69,5.09,16.11,17.17,16.11a29.94,29.94,0,0,0,3.61-.21l.21,3.18a27.79,27.79,0,0,1-4.88.43c-13.57,0-21.2-8.28-21.2-20.15,0-19.51,15.9-27.36,43.26-27.36h19.08c20.78,0,34.15-8.27,34.15-27.78,0-14.63-10.18-25.23-26.51-25.23-10.39,0-14,8.48-14,18.87,0,3,0,4.24.21,7.21l-3,1.7c-4.45-3-9.75-8.27-9.75-15.27,0-9.76,8.06-17.6,23.54-17.6,27.78,0,35.63,18.23,35.63,32.23,0,22.06-12.3,38-39.87,38a84.2,84.2,0,0,1,1.48,16.54c0,24.39-16.33,50.47-64,50.47C352,250.9,334.15,221.21,334.15,197.89Z"/></svg>