<svg id="Layer_1" data-name="Layer 1" xmlns="http://www.w3.org/2000/svg" viewBox="0 0 320 320"><defs><style>.cls-1{fill:#45b748;}.cls-2{fill:#f7d75d;}.cls-3{fill:#fff7e9;}.cls-4{fill:#fd3;}.cls-5{fill:#f7ce03;}.cls-6{fill:#fcd901;}.cls-7{fill:#f2ca03;}.cls-8{fill:#f7ce06;}.cls-9{font-size:54.28px;fill:#2a406e;font-family:LavigneDisplay-Regular, Lavigne Display;letter-spacing:-0.04em;}.cls-10{letter-spacing:-0.01em;}.cls-11{letter-spacing:0.01em;}.cls-12{letter-spacing:0em;}.cls-13{letter-spacing:0.01em;}</style></defs><path class="cls-1" d="M84.64,210.73c-.39-.08-.79-.14-1.19-.21a7.86,7.86,0,0,0,1.12.57Z"/><circle class="cls-2" cx="158.32" cy="189.86" r="115.16"/><circle class="cls-3" cx="160.13" cy="189.65" r="104.03" transform="translate(-87.2 168.78) rotate(-45)"/><path class="cls-4" d="M98.6,241l47.2-38.18s8.91-6.47,9.42,5.57V265s1.07,26.35-20.44,18.82S72.82,261.85,98.6,241Z"/><path class="cls-5" d="M161.14,267l-.84-60.71s.42-11,10.2-4l46.56,36.86s19.35,13.59.14,25.86S161.6,300.12,161.14,267Z"/><path class="cls-6" d="M220.11,234.91l-47.94-37.25s-8.34-7.2,3.27-10.45l57.64-13.42s22.93-6.55,20.51,16.12S246.29,255.25,220.11,234.91Z"/><path class="cls-7" d="M233.83,168.91l-58.82,15s-10.8,2.17-6.24-9l24.16-53.73s9.46-22.16,25.88-6.35S266,160.7,233.83,168.91Z"/><path class="cls-8" d="M126.9,119.89l27.17,54.29s5.44,9.58,10.89-1.17l24.77-53.45s10.55-21.66-12.15-23.72S112.07,90.24,126.9,119.89Z"/><path class="cls-2" d="M84,169.19l58.86,14.88s10.81,2.14,6.22-9l-24.3-53.66s-9.52-22.14-25.9-6.29S51.83,161.06,84,169.19Z"/><path class="cls-6" d="M96,235.22l48.31-36.76s8.41-7.12-3.17-10.48L84.07,173.54s-23.24-6.35-21,16.34S69.65,255.29,96,235.22Z"/><path class="cls-3" d="M159,172.91s9.35-17.7,3-22.17-11.54,4.25-8.39,10C158.37,169.44,159,172.91,159,172.91Z"/><path class="cls-3" d="M174.64,193.39s16.91,10.71,21.87,4.74-3.34-11.83-9.35-9.15C178.15,193,174.64,193.39,174.64,193.39Z"/><path class="cls-3" d="M166.22,204.81s15.36,12.84,11.19,19.38-12.29.43-11.57-6.11C166.93,208.27,166.22,204.81,166.22,204.81Z"/><path class="cls-3" d="M142.66,193.74s-15.59,12.57-21.19,7.21,2-12.14,8.25-10.16C139.13,193.77,142.66,193.74,142.66,193.74Z"/><text class="cls-9" transform="translate(101.12 206.88)">T<tspan class="cls-10" x="28.55" y="0">a</tspan><tspan class="cls-11" x="51.62" y="0">x</tspan><tspan class="cls-12" x="77.4" y="0">i</tspan><tspan class="cls-13" x="93.36" y="0">s</tspan></text></svg>