<svg id="Layer_1" data-name="Layer 1" xmlns="http://www.w3.org/2000/svg" viewBox="0 0 320 320"><defs><style>.cls-1{fill:#f7d75d;}.cls-2{fill:#8b8c6a;}.cls-3{fill:#2a406e;}</style></defs><path class="cls-1" d="M69.86,175.76c.1-9.89,2-19.24,4.14-28.54,1.69-7.31.9-14.59,0-21.9-.51-3.92-.81-7.88-1-11.83C72,99.34,84.46,87.78,101,93.33a124.7,124.7,0,0,1,13,5.51c6.77,3.19,13.7,4.91,21.29,4.21,5.1-.47,10.27-.21,15.4-.17,8.41.06,16,3.39,23.8,6a137.72,137.72,0,0,1,17,7.14c13.23,6.6,22.88,17.24,31.44,28.95a253.77,253.77,0,0,1,23.32,38.35,98.63,98.63,0,0,1,10.07,51.23c-.59,7.75-1.69,15.47-2.78,23.17a42.85,42.85,0,0,0,1.54,18.69,95.52,95.52,0,0,1,3.19,13.21c1.39,9.11-2,16.7-9.36,21.85-6.21,4.36-13.29,3.81-20.13.63a73.11,73.11,0,0,0-9.29-3.91c-6.92-2.13-14-1.43-21-.19-12.75,2.28-25.53,1.77-38.14-.3-5.8-.95-11.41-3.79-16.77-6.45-8.41-4.16-16.61-8.76-24.71-13.49a25.79,25.79,0,0,1-7.19-6.29c-9-11.62-17.84-23.32-26.42-35.23a56.24,56.24,0,0,1-6.11-12.09c-2.49-6.27-4.53-12.72-6.77-19.09A66.19,66.19,0,0,1,69,185.14C69.36,181.93,69.59,178.7,69.86,175.76Z"/><path class="cls-2" d="M82.58,82.23a39.23,39.23,0,0,0,2.65,7.44c2.16,4.51,4.4,9,6.63,13.43a3.1,3.1,0,0,1-.72,4A37.28,37.28,0,0,1,86.59,110a1.74,1.74,0,0,1-2.5-.73,10.6,10.6,0,0,1-.94-2c-2.71-7.89-5.84-15.66-7.05-23.89-.23-.17-.35-.33-.46-.33-7.31-.15-14-2.67-20.66-5.33-9.64-3.86-17.34-10.37-24.1-18.08A124.48,124.48,0,0,1,12.42,32.51c-3.11-6.28-5.89-12.72-8.8-19.09a6.92,6.92,0,0,1-.56-1.7,2.13,2.13,0,0,1,2.6-2.64,3.2,3.2,0,0,1,.86.22C11,11.19,15.47,13,19.89,15a47.53,47.53,0,0,1,11.25,7.64C39.44,29.7,47.47,37.08,53.7,46.1c3.72,5.38,6.92,11.13,10.38,16.7,2,3.23,4,6.46,6.11,9.63a16,16,0,0,0,4.52,4.72c-.06-.83-.06-1.38-.15-1.93-.78-4.56-1.43-9.12-.9-13.77A2.7,2.7,0,0,1,75,59.07c1.31-.71,2.15-.47,2.47,1,.42,2,.67,4,.94,6a57.92,57.92,0,0,0,3.29,13.11c.52-.49,1-.85,1.36-1.27A100.16,100.16,0,0,0,98.92,56.6c5.12-9.55,12-17.75,19.64-25.36a103.08,103.08,0,0,1,12.93-11.32,48.21,48.21,0,0,1,14.91-7.46C152.72,10.7,159,8.65,165.3,7a47.52,47.52,0,0,1,17.3-1.3,9.21,9.21,0,0,1,2,.32c1.89.63,2.32,2.1,1.11,3.65a9.62,9.62,0,0,1-1.11,1.1c-5,4.49-10,8.93-14.92,13.49-2.29,2.12-4.38,4.46-6.58,6.69a202.53,202.53,0,0,1-23.8,20.25c-8.82,6.5-17.65,13-27,18.78A91.46,91.46,0,0,1,89,80.72C87,81.31,84.86,81.7,82.58,82.23Z"/><path class="cls-3" d="M75.47,205.74l.17-.16c.65,0,2.17-.06,3.09-.17s1.14-1.79,1.19-2.55c.17-4.23.17-8.57.17-12.91,0-3.37-.06-9.23-.17-13,0-.81-.27-2.5-1.19-2.61s-2.39-.16-3-.16l-.16-.16.16-1.14H89c8,0,12.16,3.58,12.16,9.28,0,6.46-5,10.2-12.43,10.2-1.19,0-2.82-.1-3.8-.21,0,4.45,0,7.27.16,10.69.06.76.28,2.44,1.25,2.55s4,.22,4.73.22l.16.16-.11,1.14H75.64ZM96.1,182.29c0-4.23-1.47-8.14-7.22-8.14H85v16.66a32.89,32.89,0,0,0,3.37.17C93.93,191,96.1,187.39,96.1,182.29Z"/><path class="cls-3" d="M103.32,202.27c0-3.69,2.82-6.57,10.58-6.57h2.23v-5.27c0-3-.87-5.75-4.13-5.75-2.49,0-3.25,1.68-3.25,4.78v1.14l-.82.49c-1.63-.44-3.36-2-3.36-3.64,0-1.9,2.17-4.07,7.32-4.07,6.14,0,8.85,2.82,8.85,8.36,0,2.66-.11,5.32-.11,7.76,0,1.46,0,2.82.06,4.12.1,1.79.43,2.34,1.35,2.34,1.09,0,1.74-.82,1.74-3v-.76h1v1c0,3.1-1.3,4.18-3.74,4.18s-4.56-1.57-4.83-5.1a6.83,6.83,0,0,1-7,5.1C105.71,207.42,103.32,205.74,103.32,202.27Zm12.81-4.45V197h-2c-3.8,0-6,1.58-6,5.16,0,2.22.92,3.36,2.44,3.36C113.52,205.52,116.13,202.59,116.13,197.82Z"/><path class="cls-3" d="M127.8,205.9l.16-.16a20.21,20.21,0,0,0,2.77-.22c1-.16,1.08-1.41,1.14-2.33,0-1.74.11-4.34.11-6.35,0-3-.06-7.11-.17-8.9-.05-1.36-.11-2.44-1.3-2.72a17.68,17.68,0,0,0-2.5-.16l-.16-.16.11-1h2.77a27.16,27.16,0,0,0,5.91-.6l.17.17c-.11.92-.71,6.24-.76,6.84,1.3-2.88,4-7,7.49-7,2.22,0,3.42,1.46,3.42,3.91l-.49.54h-2.55c-5.54,0-7.44,2.12-7.44,6v2c0,2.28,0,6,.06,7.11s.1,2.39,1.08,2.49c.71.11,3.2.33,3.85.33l.17.16-.11,1H127.91Z"/><path class="cls-3" d="M148.53,205.9l.16-.16a22.66,22.66,0,0,0,2.88-.22c1-.16,1.09-1.41,1.14-2.33,0-1.74.11-10.15.11-15.2,0-3.74-.11-11.94-.16-14.11-.06-1.3-.11-2.5-1.42-2.77a17.47,17.47,0,0,0-2.55-.16l-.16-.16.11-1h3a26.68,26.68,0,0,0,6-.6l.16.17c-.32,4.66-.49,9.82-.49,15.68l0,9.61a33.68,33.68,0,0,1,3-2.77l5.16-4.4c1-.87,1.25-1.3,1.25-1.62,0-.71-1.36-.82-2.88-.82l-.16-.16.16-1h10l.11,1-.16.16a10.7,10.7,0,0,0-6.24,2.5c-1.36,1-3.1,2.49-4.51,3.74,2.5,3.64,6.57,9.83,7.93,11.78a6.31,6.31,0,0,0,2.17,2.23,5.25,5.25,0,0,0,2.17.43l.16.16-.11,1H164.27l-.11-1,.16-.16c1.14-.11,2.07-.11,2.07-.81a2.32,2.32,0,0,0-.49-1.2c-1.52-2.22-4.61-6.89-6.24-9.33-.38.32-.71.65-1,1a3,3,0,0,0-1.24,2.55c0,2.39,0,4.56.05,5.27.06,1,.11,2.28,1,2.39a16,16,0,0,0,2,.16l.16.16-.11,1H148.64Z"/><path class="cls-3" d="M177,205.9l.16-.16a20.21,20.21,0,0,0,2.77-.22c1-.16,1.09-1.41,1.14-2.33.06-1.74.11-4.34.11-6.35,0-3-.05-7.06-.16-8.9-.06-1.36-.11-2.44-1.3-2.72a17.89,17.89,0,0,0-2.5-.16l-.16-.16.1-1h2.77a27.34,27.34,0,0,0,6-.6l.17.17c-.11,1.52-.22,2.93-.28,4.45,0,2.06-.1,6.35-.1,7.49,0,2.39,0,6.51.05,7.65s.11,2.39,1.08,2.5c.71,0,2,.16,2.94.16l.16.16-.11,1h-12.7Zm2.88-30.55a3.15,3.15,0,1,1,3.15,3.14A3.12,3.12,0,0,1,179.85,175.35Z"/><path class="cls-3" d="M193.2,205.9l.16-.16a20.6,20.6,0,0,0,2.72-.22c1-.16,1.08-1.41,1.14-2.33.05-1.74.1-4.34.1-6.35,0-3-.1-7.11-.16-8.9,0-1.36-.11-2.44-1.3-2.72a17.68,17.68,0,0,0-2.5-.16l-.16-.16.11-1h2.44a23.24,23.24,0,0,0,5.92-.6l.16.17c-.05.38-.22,4.07-.22,4.34a8.26,8.26,0,0,1,7.76-4.45c5,0,8.52,2.77,8.52,8.57,0,2.07,0,5.16,0,6.19,0,1.58,0,3.15.11,5.1.05.65,0,2.23,1.08,2.34.49,0,2,.16,2.61.16l.16.16-.11,1H209.54l-.11-1,.16-.16c1.14-.05,1.79-.11,2.44-.16,1-.06,1.09-1.52,1.14-2.55.06-1.52.11-3.64.11-5.86v-4.51c0-4.4-1-7.54-5.1-7.54-3.09,0-6.19,2.44-6.3,7.16,0,1.36-.1,3.2-.1,5,0,2.07.05,4.67.1,5.81s.11,2.39,1.09,2.5c.7,0,1.74.16,2.66.16l.16.16-.11,1H193.31Z"/><path class="cls-3" d="M223,213.88c0-2.55,1.68-4.5,5.1-5.59a4.81,4.81,0,0,1-3.64-4.72c0-2.17,1.41-4.13,4.78-5.16a7.7,7.7,0,0,1-3.58-6.78c0-5.38,4.18-8.2,9-8.25a5.83,5.83,0,0,0,2.22-.22c1.41-.49,2.5-2.12,2.5-4.56a7.85,7.85,0,0,0-.11-1.52l.87-.49c1.79.44,2.93,1.52,2.93,2.88,0,2.23-2.5,3.8-5.05,4.4a7.76,7.76,0,0,1,5.75,7.76c0,5.48-4.28,8.19-9.06,8.19a11,11,0,0,1-2.71-.32,8,8,0,0,0-1.09-.16,3.28,3.28,0,0,0-1,.1c-2,.55-2.71,1.9-2.71,2.88,0,1.3,1,2,2.82,2s4.12-.11,6.51-.11c6.57,0,8.9,3.15,8.9,7.22,0,5.26-4.77,8.9-11.5,8.9C229.62,220.34,223,218.88,223,213.88Zm20.13-1.36c0-2.49-2.06-3.74-5.64-3.74-1.9,0-3.86.05-5.81.05-.49,0-.87,0-1.52-.05a5.33,5.33,0,0,0-2.93,4.88c0,3.86,3.42,5.38,6.89,5.38C239.17,219,243.13,216.54,243.13,212.52Zm-3.8-20.89c0-3.75-1.08-6.95-4.66-6.95s-4.67,3.2-4.67,6.95,1,6.89,4.67,6.89S239.33,195.37,239.33,191.63Z"/></svg>