<svg id="Layer_1" data-name="Layer 1" xmlns="http://www.w3.org/2000/svg" viewBox="0 0 320 320"><defs><style>.cls-1{fill:#45b748;}.cls-2{fill:#f7d75d;}.cls-3{fill:#fff7e9;}.cls-4{fill:#fd3;}.cls-5{fill:#f7ce03;}.cls-6{fill:#fcd901;}.cls-7{fill:#f2ca03;}.cls-8{fill:#f7ce06;}.cls-9{fill:#2a406e;}</style></defs><path class="cls-1" d="M84.64,210.73c-.39-.08-.79-.14-1.19-.21a7.86,7.86,0,0,0,1.12.57Z"/><circle class="cls-2" cx="158.32" cy="189.86" r="115.16"/><circle class="cls-3" cx="160.13" cy="189.65" r="104.03" transform="translate(-87.2 168.78) rotate(-45)"/><path class="cls-4" d="M98.6,241l47.2-38.18s8.91-6.47,9.42,5.57V265s1.07,26.35-20.44,18.82S72.82,261.85,98.6,241Z"/><path class="cls-5" d="M161.14,267l-.84-60.71s.42-11,10.2-4l46.56,36.86s19.35,13.59.14,25.86S161.6,300.12,161.14,267Z"/><path class="cls-6" d="M220.11,234.91l-47.94-37.25s-8.34-7.2,3.27-10.45l57.64-13.42s22.93-6.55,20.51,16.12S246.29,255.25,220.11,234.91Z"/><path class="cls-7" d="M233.83,168.91l-58.82,15s-10.8,2.17-6.24-9l24.16-53.73s9.46-22.16,25.88-6.35S266,160.7,233.83,168.91Z"/><path class="cls-8" d="M126.9,119.89l27.17,54.29s5.44,9.58,10.89-1.17l24.77-53.45s10.55-21.66-12.15-23.72S112.07,90.24,126.9,119.89Z"/><path class="cls-2" d="M84,169.19l58.86,14.88s10.81,2.14,6.22-9l-24.3-53.66s-9.52-22.14-25.9-6.29S51.83,161.06,84,169.19Z"/><path class="cls-6" d="M96,235.22l48.31-36.76s8.41-7.12-3.17-10.48L84.07,173.54s-23.24-6.35-21,16.34S69.65,255.29,96,235.22Z"/><path class="cls-3" d="M159,172.91s9.35-17.7,3-22.17-11.54,4.25-8.39,10C158.37,169.44,159,172.91,159,172.91Z"/><path class="cls-3" d="M174.64,193.39s16.91,10.71,21.87,4.74-3.34-11.83-9.35-9.15C178.15,193,174.64,193.39,174.64,193.39Z"/><path class="cls-3" d="M166.22,204.81s15.36,12.84,11.19,19.38-12.29.43-11.57-6.11C166.93,208.27,166.22,204.81,166.22,204.81Z"/><path class="cls-3" d="M142.66,193.74s-15.59,12.57-21.19,7.21,2-12.14,8.25-10.16C139.13,193.77,142.66,193.74,142.66,193.74Z"/><path class="cls-9" d="M108.77,205.74l.16-.16c.65,0,2.93-.11,3.75-.22,1-.11,1.25-1.74,1.3-2.5.16-4.23.16-8.57.16-12.91,0-3.91,0-11.51-.1-15.8h-3.75c-3,0-6.62,1.14-7.27,6.08-.06.54-.16,1.52-.16,1.85l-.22.16-1.09-.11v-9.28h30.12v9.28l-1.08.11-.22-.16c0-.33-.11-1.31-.16-1.85-.65-4.94-4.23-6.08-7.27-6.08h-3.75c0,4.29-.11,11.89-.11,15.8,0,4.34,0,8.68.17,12.91,0,.76.21,2.39,1.24,2.5.82.11,3.1.22,3.8.22l.17.16-.17,1.14H108.93Z"/><path class="cls-9" d="M130.81,202.27c0-3.69,2.82-6.57,10.58-6.57h2.23v-5.27c0-3-.87-5.75-4.13-5.75-2.49,0-3.25,1.68-3.25,4.78v1.14l-.82.49c-1.63-.44-3.36-2-3.36-3.64,0-1.9,2.17-4.07,7.32-4.07,6.14,0,8.85,2.82,8.85,8.36,0,2.66-.11,5.32-.11,7.76,0,1.46,0,2.82.06,4.12.11,1.79.43,2.34,1.35,2.34,1.09,0,1.74-.82,1.74-3v-.76h1v1c0,3.1-1.3,4.18-3.74,4.18s-4.56-1.57-4.83-5.1a6.83,6.83,0,0,1-7,5.1C133.2,207.42,130.81,205.74,130.81,202.27Zm12.81-4.45V197h-2c-3.8,0-6,1.58-6,5.16,0,2.22.92,3.36,2.44,3.36C141,205.52,143.62,202.59,143.62,197.82Z"/><path class="cls-9" d="M153.33,205.9l.17-.16a5.9,5.9,0,0,0,2.28-.65,8.07,8.07,0,0,0,1.68-1.58c2.12-2.65,4-5.21,6-7.7-2-3-4.23-6.41-6.13-9.23a2.73,2.73,0,0,0-1.74-1.36c-.54-.1-1.09-.1-1.63-.16l-.16-.16.16-1h10.91l.11,1-.16.16-1.69.16c-.54.06-.76.28-.76.55a2.43,2.43,0,0,0,.44,1c1.3,2,2.6,4,3.91,6.08,1.62-2.06,2.87-3.69,3.79-5,.76-1,.87-1.47.87-1.85s-.16-.54-.81-.7a9.54,9.54,0,0,0-2.12-.22l-.16-.16.11-1h8.52l.11,1-.17.16a8,8,0,0,0-2.44.65,4.94,4.94,0,0,0-1.68,1.58c-1.68,2.17-3.64,4.66-5.21,6.73,2.12,3.25,4.5,7,6.67,10.2a3,3,0,0,0,1.74,1.36,11.49,11.49,0,0,0,1.41.16l.17.16-.17,1h-11l-.11-1,.16-.16,2.12-.16c.43-.06.65-.27.65-.55a1.47,1.47,0,0,0-.33-.76c-1.52-2.38-3-4.83-4.61-7.27-1.74,2.23-3.69,4.83-4.67,6.24a3.49,3.49,0,0,0-.76,1.58c0,.27.16.59.82.7a12.78,12.78,0,0,0,2.17.22l.16.16-.11,1h-8.36Z"/><path class="cls-9" d="M180,205.9l.17-.16a20.19,20.19,0,0,0,2.76-.22c1-.16,1.09-1.41,1.14-2.33.06-1.74.11-4.34.11-6.35,0-3,0-7.06-.16-8.9-.05-1.36-.11-2.44-1.3-2.72a17.89,17.89,0,0,0-2.5-.16l-.16-.16.11-1h2.76a27.34,27.34,0,0,0,6-.6l.17.17c-.11,1.52-.22,2.93-.27,4.45-.06,2.06-.11,6.35-.11,7.49,0,2.39,0,6.51.05,7.65s.11,2.39,1.09,2.5c.7,0,1.95.16,2.93.16l.16.16-.11,1h-12.7Zm2.88-30.55A3.12,3.12,0,0,1,186,172.2a3.15,3.15,0,1,1,0,6.29A3.12,3.12,0,0,1,182.86,175.35Z"/><path class="cls-9" d="M195.83,203.35c0-1.57,1.3-2.93,3-3.69l1,.49a7.58,7.58,0,0,0-.06,1.14c0,2.66.71,4.83,4.62,4.83,3.36,0,5.59-1.74,5.59-3.91,0-1.68-1.09-2.87-3.37-3.8-1.95-.81-3.36-1.35-4.5-1.79-4-1.46-5.75-3.47-5.75-6.57,0-3.42,2.76-6.67,8.41-6.67s7.6,2,7.6,3.74c0,1.42-1.41,2.77-2.66,3.42l-1.09-.38c0-2.93-.43-5.48-4.23-5.48-3.31,0-5,1.9-5,3.86,0,1.68,1,2.65,3.52,3.58,2,.76,3.58,1.41,4.67,1.84,3.64,1.52,5.54,3.31,5.54,6.57s-2.77,6.89-9,6.89C198.6,207.42,195.83,205.69,195.83,203.35Z"/></svg>