<svg id="Layer_1" data-name="Layer 1" xmlns="http://www.w3.org/2000/svg" viewBox="0 0 320 320"><defs><style>.cls-1{fill:#f7d75d;}.cls-2{fill:#8b8c6a;}.cls-3{font-size:54.28px;fill:#2a406e;font-family:LavigneDisplay-Regular, Lavigne Display;letter-spacing:0.01em;}.cls-4{letter-spacing:0em;}.cls-5{letter-spacing:0.01em;}</style></defs><path class="cls-1" d="M69.86,175.76c.1-9.89,2-19.24,4.14-28.54,1.69-7.31.9-14.59,0-21.9-.51-3.92-.81-7.88-1-11.83C72,99.34,84.46,87.78,101,93.33a124.7,124.7,0,0,1,13,5.51c6.77,3.19,13.7,4.91,21.29,4.21,5.1-.47,10.27-.21,15.4-.17,8.41.06,16,3.39,23.8,6a137.72,137.72,0,0,1,17,7.14c13.23,6.6,22.88,17.24,31.44,28.95a253.77,253.77,0,0,1,23.32,38.35,98.63,98.63,0,0,1,10.07,51.23c-.59,7.75-1.69,15.47-2.78,23.17a42.85,42.85,0,0,0,1.54,18.69,95.52,95.52,0,0,1,3.19,13.21c1.39,9.11-2,16.7-9.36,21.85-6.21,4.36-13.29,3.81-20.13.63a73.11,73.11,0,0,0-9.29-3.91c-6.92-2.13-14-1.43-21-.19-12.75,2.28-25.53,1.77-38.14-.3-5.8-.95-11.41-3.79-16.77-6.45-8.41-4.16-16.61-8.76-24.71-13.49a25.79,25.79,0,0,1-7.19-6.29c-9-11.62-17.84-23.32-26.42-35.23a56.24,56.24,0,0,1-6.11-12.09c-2.49-6.27-4.53-12.72-6.77-19.09A66.19,66.19,0,0,1,69,185.14C69.36,181.93,69.59,178.7,69.86,175.76Z"/><path class="cls-2" d="M82.58,82.23a39.23,39.23,0,0,0,2.65,7.44c2.16,4.51,4.4,9,6.63,13.43a3.1,3.1,0,0,1-.72,4A37.28,37.28,0,0,1,86.59,110a1.74,1.74,0,0,1-2.5-.73,10.6,10.6,0,0,1-.94-2c-2.71-7.89-5.84-15.66-7.05-23.89-.23-.17-.35-.33-.46-.33-7.31-.15-14-2.67-20.66-5.33-9.64-3.86-17.34-10.37-24.1-18.08A124.48,124.48,0,0,1,12.42,32.51c-3.11-6.28-5.89-12.72-8.8-19.09a6.92,6.92,0,0,1-.56-1.7,2.13,2.13,0,0,1,2.6-2.64,3.2,3.2,0,0,1,.86.22C11,11.19,15.47,13,19.89,15a47.53,47.53,0,0,1,11.25,7.64C39.44,29.7,47.47,37.08,53.7,46.1c3.72,5.38,6.92,11.13,10.38,16.7,2,3.23,4,6.46,6.11,9.63a16,16,0,0,0,4.52,4.72c-.06-.83-.06-1.38-.15-1.93-.78-4.56-1.43-9.12-.9-13.77A2.7,2.7,0,0,1,75,59.07c1.31-.71,2.15-.47,2.47,1,.42,2,.67,4,.94,6a57.92,57.92,0,0,0,3.29,13.11c.52-.49,1-.85,1.36-1.27A100.16,100.16,0,0,0,98.92,56.6c5.12-9.55,12-17.75,19.64-25.36a103.08,103.08,0,0,1,12.93-11.32,48.21,48.21,0,0,1,14.91-7.46C152.72,10.7,159,8.65,165.3,7a47.52,47.52,0,0,1,17.3-1.3,9.21,9.21,0,0,1,2,.32c1.89.63,2.32,2.1,1.11,3.65a9.62,9.62,0,0,1-1.11,1.1c-5,4.49-10,8.93-14.92,13.49-2.29,2.12-4.38,4.46-6.58,6.69a202.53,202.53,0,0,1-23.8,20.25c-8.82,6.5-17.65,13-27,18.78A91.46,91.46,0,0,1,89,80.72C87,81.31,84.86,81.7,82.58,82.23Z"/><text class="cls-3" transform="translate(73.09 206.88)">Par<tspan class="cls-4" x="74.52" y="0">k</tspan><tspan class="cls-5" x="102.42" y="0">ing</tspan></text></svg>