<svg id="Layer_1" data-name="Layer 1" xmlns="http://www.w3.org/2000/svg" viewBox="0 0 320 320"><defs><style>.cls-1{fill:#f7d75d;}.cls-2{fill:#8b8c6a;}.cls-3{fill:#707053;}.cls-4{fill:#2a406e;}</style></defs><path class="cls-1" d="M145.12,113.27c8-3.86,16.35-6.06,24.73-8,6.59-1.55,12.16-5.09,17.69-8.77,3-2,6.05-3.8,9.14-5.57,11.09-6.36,25.41-.9,27.5,14.68a107.19,107.19,0,0,1,.72,12.68c.12,6.74,1.49,13,5.09,18.9a138.05,138.05,0,0,1,6.27,12.38c3.31,6.82,3.66,14.32,4.63,21.64a122.7,122.7,0,0,1,1,16.6c-.06,13.33-4.81,25.37-10.88,37a228.94,228.94,0,0,1-21.7,34.15,88.86,88.86,0,0,1-37.41,28.56c-6.5,2.62-13.19,4.81-19.85,7a38.67,38.67,0,0,0-14.5,8.69,84.81,84.81,0,0,1-9.4,7.85,19.35,19.35,0,0,1-21.4,1.15c-6-3.29-8.38-9.23-8.54-16a66.83,66.83,0,0,0-.54-9.07c-1-6.45-4.42-11.89-8.2-17-6.93-9.41-11.62-19.95-15-31C73,234,73,228.32,73,222.92c0-8.45.46-16.92,1.06-25.36a23,23,0,0,1,2.22-8.31c5.81-11.89,11.73-23.73,18-35.41a50.57,50.57,0,0,1,7.34-9.77c4.07-4.51,8.48-8.73,12.74-13.08a59.59,59.59,0,0,1,22.84-14.69C139.93,115.32,142.64,114.23,145.12,113.27Z"/><path class="cls-2" d="M253.58,4.69c.37,11.88.56,22.47-1.57,33.07-4,20-13.64,37.09-25.72,53.08-2.86,3.78-6.16,6.5-11.17,7.08-4,.46-8,1.73-12.41,2.74a33.83,33.83,0,0,1-1.77-5.39c-1.34-8.88-2.38-17.73-1-26.77,1.35-8.68,5.52-15.64,11.49-21.74,8-8.2,16.15-16.34,24.23-24.52,5-5,9.93-10.09,14.91-15.12C251.2,6.51,251.93,6,253.58,4.69Z"/><path class="cls-3" d="M317.81,100.34c-1.33,1.07-2.58,2.23-4,3.18-11.55,7.9-22.89,16.18-35.82,21.8-3.17,1.37-6.46,2.48-9.75,3.56a34.43,34.43,0,0,1-29.54-3.35c-6.47-3.85-12.59-8.29-18.77-12.6-4.21-2.92-8.25-6.08-12.8-9.46,2.68-.8,5.17-1.53,7.64-2.29,11-3.41,22-6.7,33.45-8.05a94.54,94.54,0,0,1,21.66-.23q17.61,2,35.21,4c2.81.32,5.65.36,8.47.67C315.76,97.8,315.74,97.9,317.81,100.34Z"/><path class="cls-4" d="M92,189.92l.17-.17c.65,0,2.17-.05,3.09-.16s1.14-1.79,1.2-2.55c.16-4.23.16-8.57.16-12.92,0-3.36-.06-9.22-.16-13,0-.82-.28-2.5-1.2-2.61s-2.39-.16-3-.16l-.16-.16L92.2,157h13.35c8,0,12.16,3.58,12.16,9.28,0,6.46-5,10.2-12.43,10.2-1.19,0-2.82-.11-3.8-.22,0,4.46,0,7.28.17,10.7,0,.76.27,2.44,1.24,2.55s4,.21,4.73.21l.16.17-.11,1.14H92.15Zm20.63-23.45c0-4.23-1.47-8.14-7.22-8.14h-3.91V175a32.89,32.89,0,0,0,3.37.17C110.44,175.16,112.61,171.57,112.61,166.47Z"/><path class="cls-4" d="M138.93,191.49c.06-.38.22-4.18.22-4.56a7.79,7.79,0,0,1-7.6,4.67c-5,0-8.25-2.71-8.25-8.63v-6.13c0-1.63,0-3.37,0-4.89,0-1.19-.11-2.39-1-2.49s-1.52-.17-2.33-.22l-.17-.16.11-1h2.17a26.45,26.45,0,0,0,5.87-.6l.16.17c-.11,1.19-.27,3.14-.27,4.83v8.95c0,4.61.7,8.41,4.83,8.41a6.06,6.06,0,0,0,5.75-4.5,8.8,8.8,0,0,0,.38-2.5c.06-1.68.11-3.53.11-5.15,0-1.85,0-4.51-.11-5.76s-.11-2.39-1.08-2.55a26,26,0,0,0-3-.16l-.16-.16.11-1h3a27.26,27.26,0,0,0,5.92-.6l.16.17c-.11,1.19-.22,2.93-.22,4.45-.05,1.73-.11,4-.11,6,0,3,.06,7.11.17,8.9,0,1.36.11,2.44,1.3,2.71a16,16,0,0,0,2.44.17l.17.16-.11,1H145a24.67,24.67,0,0,0-5.86.59Z"/><path class="cls-4" d="M153,191.33c.06-1.74.22-11.51.22-15.47,0-7.16,0-15.58-.16-17.8-.06-1.3-.11-2.55-1.41-2.77a17.1,17.1,0,0,0-2.55-.16L149,155l.11-1h3.21a25.72,25.72,0,0,0,5.8-.6l.17.16c-.33,4-.49,10.48-.49,13.68,0,1.36-.06,2.44-.22,4.51a7.67,7.67,0,0,1,7-4.18c6.89,0,9.23,4.94,9.23,11.07,0,7.54-3,13-10.8,13-2.66,0-5.16-1-6-1a13.42,13.42,0,0,0-3.59,1ZM168.89,179c0-4.67-.54-9.88-5.1-9.88a5.73,5.73,0,0,0-5.32,3.91,12.27,12.27,0,0,0-.7,4.72v9.06c0,1.63.38,2,.92,2.39a7.85,7.85,0,0,0,4.12,1C167.75,190.24,168.89,184.87,168.89,179Z"/><path class="cls-4" d="M177.47,190.08l.16-.16a19.21,19.21,0,0,0,2.88-.22c1-.16,1.08-1.41,1.14-2.33,0-1.74.11-10.15.11-15.2,0-3.75-.11-11.94-.17-14.11-.05-1.3-.1-2.55-1.41-2.77a17.57,17.57,0,0,0-2.55-.16l-.16-.17.11-1h3a26.12,26.12,0,0,0,5.91-.6l.17.16c-.33,5.32-.49,12.11-.49,16.34v3.74c0,2.88.11,12.49.16,13.63s.11,2.39,1,2.49c.76.06,1.9.17,2.88.17l.16.16-.11,1H177.58Z"/><path class="cls-4" d="M193.86,190.08l.16-.16a20.21,20.21,0,0,0,2.77-.22c1-.16,1.09-1.41,1.14-2.33.06-1.74.11-4.35.11-6.35,0-3,0-7.06-.16-8.9-.06-1.36-.11-2.45-1.3-2.72a16.48,16.48,0,0,0-2.5-.16l-.16-.16.1-1h2.77a27.34,27.34,0,0,0,6-.6l.16.17c-.1,1.51-.21,2.93-.27,4.45-.05,2.06-.11,6.35-.11,7.49,0,2.38,0,6.51.06,7.65s.11,2.39,1.08,2.49c.71.06,2,.17,2.94.17l.16.16-.11,1H194Zm2.88-30.56a3.11,3.11,0,0,1,3.15-3.14,3.15,3.15,0,0,1,0,6.29A3.11,3.11,0,0,1,196.74,159.52Z"/><path class="cls-4" d="M210.63,179.5c0-6.79,4.29-11.94,11.62-11.94,5.1,0,7.11,2.22,7.11,4.18,0,1.73-1.85,3-3.37,3.52l-.76-.54v-1.36c0-2.55-.6-4.5-3.15-4.5-5,0-6.67,4.83-6.67,10.37s1.46,10.9,7.11,10.9a7.07,7.07,0,0,0,6.57-3.85l.92.6c-2,3.69-4.94,4.72-8.2,4.72C214.49,191.6,210.63,186.66,210.63,179.5Z"/><path class="cls-4" d="M58,232l.16-.16c.65,0,2.93-.11,3.74-.22,1-.11,1.25-1.73,1.31-2.49.16-4.24.16-8.58.16-12.92,0-3.91-.06-11.51-.11-15.8H59.56c-3,0-6.63,1.14-7.28,6.08-.05.55-.16,1.52-.16,1.85l-.22.16-1.08-.11v-9.28H80.94v9.28l-1.09.11-.21-.16c0-.33-.11-1.3-.17-1.85-.65-4.94-4.23-6.08-7.27-6.08H68.46c-.06,4.29-.11,11.89-.11,15.8,0,4.34,0,8.68.16,12.92,0,.76.22,2.38,1.25,2.49.81.11,3.09.22,3.8.22l.16.16-.16,1.14H58.2Z"/><path class="cls-4" d="M81.43,232.21l.16-.17a22.06,22.06,0,0,0,2.77-.21c1-.17,1.09-1.41,1.14-2.34.06-1.74.11-4.34.11-6.35,0-3,0-7.11-.16-8.9-.06-1.36-.11-2.44-1.31-2.71a16.13,16.13,0,0,0-2.49-.17l-.17-.16.11-1h2.77a27.24,27.24,0,0,0,5.92-.59l.16.16c-.11.92-.71,6.24-.76,6.84,1.3-2.88,4-6.95,7.49-6.95,2.23,0,3.42,1.47,3.42,3.91l-.49.54H97.55c-5.54,0-7.44,2.12-7.44,6v2c0,2.28,0,6,.06,7.11s.11,2.39,1.08,2.5c.71.11,3.21.32,3.86.32l.16.17-.11,1H81.54Z"/><path class="cls-4" d="M102.38,228.57c0-3.69,2.82-6.57,10.58-6.57h2.23v-5.26c0-3-.87-5.76-4.13-5.76-2.49,0-3.25,1.69-3.25,4.78v1.14l-.82.49c-1.62-.44-3.36-2-3.36-3.64,0-1.9,2.17-4.07,7.33-4.07,6.13,0,8.84,2.82,8.84,8.36,0,2.66-.11,5.32-.11,7.76,0,1.47,0,2.82.06,4.13.11,1.79.43,2.33,1.36,2.33,1.08,0,1.73-.81,1.73-3v-.76h1v1c0,3.09-1.3,4.18-3.74,4.18s-4.56-1.58-4.83-5.11a6.83,6.83,0,0,1-7,5.11C104.77,233.73,102.38,232,102.38,228.57Zm12.81-4.45v-.82h-2c-3.8,0-6,1.58-6,5.16,0,2.23.92,3.37,2.44,3.37C112.58,231.83,115.19,228.89,115.19,224.12Z"/><path class="cls-4" d="M126.91,232.21l.17-.17a22.85,22.85,0,0,0,2.71-.21c1-.17,1.09-1.41,1.14-2.34,0-1.74.11-4.34.11-6.35,0-3-.11-7.11-.16-8.9,0-1.36-.11-2.44-1.31-2.71a16.13,16.13,0,0,0-2.49-.17l-.17-.16.11-1h2.44a23.33,23.33,0,0,0,5.92-.59l.16.16c0,.38-.21,4.07-.21,4.34a8.27,8.27,0,0,1,7.76-4.45c5,0,8.52,2.77,8.52,8.58,0,2.06-.06,5.15-.06,6.18,0,1.58,0,3.15.11,5.11.06.65,0,2.22,1.09,2.33.49.05,1.95.16,2.6.16l.17.17-.11,1H143.25l-.11-1,.16-.17c1.14,0,1.8-.11,2.45-.16,1,0,1.08-1.52,1.14-2.55.05-1.52.11-3.64.11-5.86V219c0-4.39-1-7.54-5.11-7.54-3.09,0-6.18,2.44-6.29,7.16-.06,1.36-.11,3.21-.11,5,0,2.06,0,4.66.11,5.8s.11,2.39,1.08,2.5c.71.05,1.74.16,2.66.16l.16.17-.1,1H127Z"/><path class="cls-4" d="M158.56,229.65c0-1.57,1.3-2.93,3-3.69l1,.49a9.17,9.17,0,0,0,0,1.14c0,2.66.7,4.83,4.61,4.83,3.37,0,5.59-1.73,5.59-3.91,0-1.68-1.08-2.87-3.36-3.79-2-.82-3.37-1.36-4.51-1.8-4-1.46-5.75-3.47-5.75-6.56,0-3.42,2.77-6.68,8.41-6.68s7.6,1.95,7.6,3.75c0,1.41-1.41,2.76-2.66,3.42l-1.08-.38c0-2.93-.44-5.49-4.24-5.49-3.31,0-5,1.9-5,3.86,0,1.68,1,2.66,3.53,3.58,2,.76,3.58,1.41,4.66,1.84,3.64,1.53,5.54,3.32,5.54,6.57s-2.77,6.9-9,6.9C161.32,233.73,158.56,232,158.56,229.65Z"/><path class="cls-4" d="M179.13,245.88l.16-.16a20,20,0,0,0,2.66-.22c1-.16,1.14-1.41,1.14-2.33,0-5.1.11-9.66.11-13.95,0-4.12-.06-13.19-.06-15,0-1.36-.11-2.44-1.3-2.71a17.56,17.56,0,0,0-2.55-.17l-.16-.16.11-1h2.55a22.6,22.6,0,0,0,5.86-.59l.16.16c-.05.38-.27,3.75-.27,4.13a7.52,7.52,0,0,1,7-4.24c6.62,0,9.17,4.61,9.17,10.91,0,7.16-2.76,13.14-11.12,13.14a13.42,13.42,0,0,1-4.78-1c0,3.31.06,7.38.11,10.2.05,1.09.16,2.34,1.52,2.5a33,33,0,0,0,3.58.27l.16.16-.1,1H179.24Zm19.75-25.13c0-6.08-1.57-9.5-5.1-9.5a5.6,5.6,0,0,0-5,3.21,9.53,9.53,0,0,0-1,4.83v9.33c0,1.74.27,2.17.76,2.61.92.87,2.82,1.14,4.23,1.14C198.12,232.37,198.88,226.07,198.88,220.75Z"/><path class="cls-4" d="M208.49,221.73c0-7.06,4.07-12,11-12s11,5,11,12-4.07,12-11,12S208.49,228.79,208.49,221.73Zm17.15,0c0-7.81-2.22-10.75-6.13-10.75s-6.14,2.94-6.14,10.75,2.23,10.69,6.14,10.69S225.64,229.55,225.64,221.73Z"/><path class="cls-4" d="M234.43,232.21l.17-.17a22,22,0,0,0,2.76-.21c1-.17,1.09-1.41,1.14-2.34.06-1.74.11-4.34.11-6.35,0-3-.05-7.11-.16-8.9,0-1.36-.11-2.44-1.3-2.71a16.36,16.36,0,0,0-2.5-.17l-.16-.16.11-1h2.76a27.24,27.24,0,0,0,5.92-.59l.16.16c-.11.92-.7,6.24-.76,6.84,1.31-2.88,4-6.95,7.49-6.95,2.23,0,3.42,1.47,3.42,3.91l-.49.54h-2.55c-5.53,0-7.43,2.12-7.43,6v2c0,2.28,0,6,0,7.11s.11,2.39,1.09,2.5c.7.11,3.2.32,3.85.32l.16.17-.1,1H234.54Z"/><path class="cls-4" d="M258.8,227.1c0-1.79.06-4.23.06-6.51v-9c-1.2-.16-2.77-.16-3.53-.21l-.16-.17.11-.92c5-.65,6.62-3.53,7.16-8.46h1v8.35h5.27l.1,1-.16.16c-.92.06-3.36.17-4.5.33a.71.71,0,0,0-.71.81c0,3.75-.11,7.17-.11,9.29,0,1.89,0,6,.11,7.59.16,2.12.6,2.88,1.74,2.88,1.73,0,3.15-1.19,3.15-3.69v-.16h1v.21c0,3.53-2.17,5.11-5,5.11C262,233.73,258.8,232.21,258.8,227.1Z"/></svg>