<svg id="Layer_1" data-name="Layer 1" xmlns="http://www.w3.org/2000/svg" viewBox="0 0 320 320"><defs><style>.cls-1{fill:#f7d75d;}.cls-2{fill:#8b8c6a;}.cls-3{fill:#707053;}.cls-4{font-size:54.28px;fill:#2a406e;font-family:LavigneDisplay-Regular, Lavigne Display;letter-spacing:0.02em;}.cls-5{letter-spacing:0em;}.cls-6{letter-spacing:0.01em;}.cls-7{letter-spacing:-0.03em;}.cls-8{letter-spacing:0.01em;}.cls-9{letter-spacing:0em;}</style></defs><path class="cls-1" d="M145.12,113.27c8-3.86,16.35-6.06,24.73-8,6.59-1.55,12.16-5.09,17.69-8.77,3-2,6.05-3.8,9.14-5.57,11.09-6.36,25.41-.9,27.5,14.68a107.19,107.19,0,0,1,.72,12.68c.12,6.74,1.49,13,5.09,18.9a138.05,138.05,0,0,1,6.27,12.38c3.31,6.82,3.66,14.32,4.63,21.64a122.7,122.7,0,0,1,1,16.6c-.06,13.33-4.81,25.37-10.88,37a228.94,228.94,0,0,1-21.7,34.15,88.86,88.86,0,0,1-37.41,28.56c-6.5,2.62-13.19,4.81-19.85,7a38.67,38.67,0,0,0-14.5,8.69,84.81,84.81,0,0,1-9.4,7.85,19.35,19.35,0,0,1-21.4,1.15c-6-3.29-8.38-9.23-8.54-16a66.83,66.83,0,0,0-.54-9.07c-1-6.45-4.42-11.89-8.2-17-6.93-9.41-11.62-19.95-15-31C73,234,73,228.32,73,222.92c0-8.45.46-16.92,1.06-25.36a23,23,0,0,1,2.22-8.31c5.81-11.89,11.73-23.73,18-35.41a50.57,50.57,0,0,1,7.34-9.77c4.07-4.51,8.48-8.73,12.74-13.08a59.59,59.59,0,0,1,22.84-14.69C139.93,115.32,142.64,114.23,145.12,113.27Z"/><path class="cls-2" d="M253.58,4.69c.37,11.88.56,22.47-1.57,33.07-4,20-13.64,37.09-25.72,53.08-2.86,3.78-6.16,6.5-11.17,7.08-4,.46-8,1.73-12.41,2.74a33.83,33.83,0,0,1-1.77-5.39c-1.34-8.88-2.38-17.73-1-26.77,1.35-8.68,5.52-15.64,11.49-21.74,8-8.2,16.15-16.34,24.23-24.52,5-5,9.93-10.09,14.91-15.12C251.2,6.51,251.93,6,253.58,4.69Z"/><path class="cls-3" d="M317.81,100.34c-1.33,1.07-2.58,2.23-4,3.18-11.55,7.9-22.89,16.18-35.82,21.8-3.17,1.37-6.46,2.48-9.75,3.56a34.43,34.43,0,0,1-29.54-3.35c-6.47-3.85-12.59-8.29-18.77-12.6-4.21-2.92-8.25-6.08-12.8-9.46,2.68-.8,5.17-1.53,7.64-2.29,11-3.41,22-6.7,33.45-8.05a94.54,94.54,0,0,1,21.66-.23q17.61,2,35.21,4c2.81.32,5.65.36,8.47.67C315.76,97.8,315.74,97.9,317.81,100.34Z"/><text class="cls-4" transform="translate(89.6 191.06)">P<tspan class="cls-5" x="29.53" y="0">u</tspan><tspan class="cls-6" x="59.49" y="0">blic</tspan><tspan class="cls-7"><tspan x="-39.21" y="42.13">T</tspan><tspan class="cls-8" x="-9.63" y="42.13">ran</tspan><tspan class="cls-9" x="67.6" y="42.13">s</tspan><tspan class="cls-6" x="88.44" y="42.13">port</tspan></tspan></text></svg>