<svg id="Layer_1" data-name="Layer 1" xmlns="http://www.w3.org/2000/svg" viewBox="0 0 400.16 400.16"><defs><style>.cls-1{fill:#fff;}</style></defs><path class="cls-1" d="M26.48,213h0a4.41,4.41,0,0,0-.82,1.08c-1.79,4.85-9.76,8.1-15,5.52-1.51-.74-3.27-1-4.83-1.65-3.47-1.47-4-2.07-5.86-6H0a6.6,6.6,0,0,1,1.64-1.34c2.55-1,4.06-3,5.34-5.3,2.14-3.81,5.56-6.45,8.68-9.3a8.43,8.43,0,0,1,6.65-2c1.78.17,3.59,0,5.62,0h0c.36-4.15.55-8.36,1.13-12.51a163.49,163.49,0,0,1,2.87-16.18c1.24-5,3-9.95,4.65-14.87q1.88-5.53,4.06-11c2.09-5.24,4.18-10.47,6.47-15.62a49.87,49.87,0,0,1,3.12-5c4.47-7.55,9.53-14.72,14.4-22a44.52,44.52,0,0,1,3.61-4.41c4.17-4.79,8.27-9.64,12.59-14.3,3.86-4.15,8-8.09,12-12.1q4.23-4.19,8.55-8.28c2.42-2.3,5.33-3.86,8.16-5.6,6.36-3.92,13.69-6,19.71-10.48a3.64,3.64,0,0,1,.71-.47c5.12-2.24,10.33-4.28,15.34-6.74,6.91-3.4,14.32-4.91,21.75-6.48,4-.85,7.92-1.89,11.93-2.46,5.69-.8,11.39-1.92,17.2-1.08a6.92,6.92,0,0,0,1.69-.13,55.12,55.12,0,0,1,12.77.3c3.28.44,6.6.64,9.9.88,3.88.28,7.77.36,11.63.76,2.81.29,5.56,1.06,8.37,1.44,3.93.52,7.89.86,11.84,1.29,1.22.14,2.44.28,3.65.5,2.59.46,5.17,1,7.85,1.49h0c-.93-2.19-1.69-4.28-2.68-6.25a14.48,14.48,0,0,1-1.29-9.9c.21-1,.22-2.07.38-3.11A3.19,3.19,0,0,1,262.75,9,3.37,3.37,0,0,1,266,11.09a15.89,15.89,0,0,0,2.37,3.82c3.28,3.49,5.18,7.86,7.77,11.79,1.17,1.77,2.69,3.39,2.43,5.87-.06.57,1.11,1.45,1.88,1.88a22.51,22.51,0,0,0,3.47,1.3c4.73,1.64,9.45,3.3,14.19,4.9a11.12,11.12,0,0,1,5.5,3.27c.93,1.12,2.61,1.63,3.95,2.42L308,46c-.47-1.08-1-2.13-1.41-3.23-2-5.28-3.82-10.62-6-15.84a26.48,26.48,0,0,0-6.89-9.59c-.35-.31-.93-.58-1-.94a4.72,4.72,0,0,1,0-2.66,2.53,2.53,0,0,1,2.08-1c6.43.6,12.32,2.35,17.27,7,3.07,2.85,6.27,5.51,8.67,9a47.21,47.21,0,0,1,2.84,4.87,17.7,17.7,0,0,1,2.07,8.28c0,5.22,1.19,10.4,2,15.58a32.21,32.21,0,0,0,3.79,10,74.47,74.47,0,0,0,4,6.38c.46.68,7.08,9.65,8.6,11.55a55.57,55.57,0,0,1,6.78,10.83,14.16,14.16,0,0,0,.8,1.3h0c.5-3.38.94-6.51,1.43-9.62.45-2.88.9-5.75,1.46-8.6.64-3.32,1.67-6.59,2-9.93s.4-7-2.09-10a4,4,0,0,1-.49-2.07c-.06-.64.22-1.36,0-1.94-.34-1-.1-1.74.83-2.09a2,2,0,0,1,2.65,1.11c2.84,5.71,5.68,11.43,7.25,17.68,1,3.86,2.33,7.62,3.15,11.5a26.4,26.4,0,0,1,.35,7.27c-.22,3-1.33,5.86-1.51,8.92-.14,2.29-1.12,4.52-1.68,6.78-.63,2.57-2.47,7.63-3.07,10.2a134.52,134.52,0,0,0,2.29,14.09c.82,3.3,2.17,5.67,3.12,8.94.57,2,.72,1.69,1.25,3.73l1.24,2.49c.36-.07.87-1.91,1-2.06,2.69-3.89,5.77-7.6,7.91-11.78,1.8-3.53,3.91-7.12,3.88-11.42a34.79,34.79,0,0,1,.9-5.56,5,5,0,0,0-.79-4.17c-1-1.45.24-3.37,1.16-4.89a3.49,3.49,0,0,1,1-.8h0c1.76,1.26,3.49,2.38,5.09,3.65,4,3.16,7.12,6.92,8.22,12,.63,3,1.38,5.89,1.72,8.87a10.32,10.32,0,0,1-.78,4.69c-1.32,3.4-2.26,7-4.6,9.93a46.13,46.13,0,0,0-4.8,6.88c-1.71,3.2-4.69,5.55-5.72,9.2a8.05,8.05,0,0,1-2.09,3c-3.43,3.66-5.18,8.21-6.27,12.91-.58,2.49,0,5.26.13,7.9,0,.75,0,10.19,0,14.17,0,1.48.51,6.74.37,7.86-.54,4.48-1.12,9-1.8,13.44-.3,1.95-.92,3.85-1.32,5.8-.15.72-1.94,6.5-2,7.11a29.61,29.61,0,0,1-2.91,9.4,39.88,39.88,0,0,0-1.2,4.29,49.9,49.9,0,0,1-1.75,5.08c-1,2.34-2.26,4.58-3.3,6.91-1.52,3.42-2.89,6.91-4.41,10.33s-3,6.71-4.68,10c-1.88,3.58-4,7-6,10.53a2.4,2.4,0,0,1-.28.5c-2.84,3.17-3.59,7.57-6.38,10.81-1.08,1.25-1.52,3-2.26,4.57a24.12,24.12,0,0,1-4.87,6.91c-1.45,1.42-2.55,3.19-3.86,4.75a36.51,36.51,0,0,1-7.07,6.46c-3.79,2.64-7.32,5.64-11,8.4-2.65,2-5.44,3.77-8.09,5.74-3.55,2.64-7,5.45-10.56,8.05-2.14,1.56-4.6,2.68-6.65,4.33-4.81,3.86-10.28,6.68-15.32,10.18a44.51,44.51,0,0,1-11.31,5.7,83.84,83.84,0,0,1-17.14,4c-8,.86-15.9,2.23-23.89,2.86-8.4.66-16.84.82-25.27,1a65.4,65.4,0,0,1-10.45-.79c-3-.45-6-1.37-9-2.08-4.59-1.08-9.2-2.08-13.76-3.25-2.66-.68-5.27-1.58-7.87-2.46-3.54-1.2-7.14-2.29-10.55-3.78s-6.91-2.57-10.37-3.82c-4.34-1.56-8.44-3.77-12.67-5.65-2.64-1.18-5.32-2.26-8-3.39a.32.32,0,0,0-.4.47c.83,1.32,1.65,2.64,2.52,3.93a28.78,28.78,0,0,1,4.53,11.32c.38,2.28,1.21,4.48,1,6.93a16.13,16.13,0,0,1-.77,3.46c-.62,2-1.53,3.9-2,5.92a20.28,20.28,0,0,0-.72,5.57,2.24,2.24,0,0,1-1.72,2.49,9.4,9.4,0,0,1-8.64-1.09,21.65,21.65,0,0,1-7.3-6.57c-1.63-2.51-4-4.6-5.35-7.23a81.57,81.57,0,0,1-5.11-12.3c-1.82-5.57-3.34-11.25-4.71-16.94a78.43,78.43,0,0,0-4.1-13.5c-1.48-3.33-2.73-6.75-5.1-9.66-2.16-2.67-3.83-5.74-6-8.4-2.8-3.43-6.38-6.29-8.73-10-4-6.3-9.78-11.33-12.92-18.23-1.8-4-3.72-7.92-5.7-12.13h0a.33.33,0,0,0-.62,0,10.86,10.86,0,0,0-.35,5.39c.51,2.75.59,5.54,1.61,8.22,1.34,3.54,2.4,7.18,3.64,10.76,1.08,3.13,2.52,6.17,3.28,9.38a18.22,18.22,0,0,1-1,10.63A39.4,39.4,0,0,1,43,322.34a16.63,16.63,0,0,0-2.24,9.45c.08,1.44-.19,3.18-1.88,3.83-1.53.59-2.89.22-4.48-.56-3.84-1.88-6.14-5.31-8.77-8.28a13.82,13.82,0,0,1-3.7-7.82,4.12,4.12,0,0,0-.21-1.11c-2.22-5.5-1.74-11.13-.86-16.79A55.85,55.85,0,0,1,25.71,286c1.81-3.86,3.69-7.72,5.11-11.72a42,42,0,0,0,2.28-13c.15-5.44-1.8-10.32-3.24-15.32a48.17,48.17,0,0,1-2.19-16.08c.18-3.38-.27-6.8-.37-10.2-.06-2.15,0-4.31,0-6.46v-1.61h0ZM83.55,323.6l-.34.54c3.75,3.13,7.44,6.36,11.29,9.38s7.7,5.81,11.65,8.57a36.68,36.68,0,0,0,5.46,3c3.08,1.46,6.29,2.65,9.33,4.2,5.53,2.8,11.12,5.23,17.48,5.27a6,6,0,0,1,2.9,1,5,5,0,0,0,2.66.5,14.22,14.22,0,0,0,6.55-1.5c2.34-1,4.75-2.07,6.38-4.1,2.11-2.63,5.14-3.83,7.84-5.53a3.37,3.37,0,0,1,1.9-.32c3.09.16,6.19.3,9.26.63s5.23,4.21,3.86,6.87a28.79,28.79,0,0,1-4.48,6.44c-2.33,2.51-4.56,5.22-7.9,6.74h0a15.67,15.67,0,0,0,3.52,1.25c1.48.34,3,.56,4.48.84,4.07.74,8.11,1.76,12.21,2.16,4.53.44,9.12.38,13.68.43a73.21,73.21,0,0,0,8.25-.28c6.52-.64,13-1.61,19.54-2.16a115.57,115.57,0,0,0,22.94-3.8,64.85,64.85,0,0,0,9.31-3.43,48.09,48.09,0,0,0,9.09-5.19c3.82-3,8-5.39,12.09-8.07.87-.58,1.67-1.26,2.54-1.85a93.09,93.09,0,0,0,8-5.41,137.08,137.08,0,0,1,17.83-13.16,26.55,26.55,0,0,0,3.41-2.58c1.82-1.53,3.46-3.29,5.39-4.65,5.58-4,9.61-9.29,13.07-15.08,3.26-5.45,6.26-11.06,9.4-16.59,2.56-4.52,5.18-9,7.7-13.55a36.81,36.81,0,0,0,1.48-3.66c1.39-3.31,2.79-6.63,4.22-9.93,1.55-3.58,3.2-7.11,4.71-10.7.59-1.4.9-2.91,1.39-4.35,1.34-3.85,3-7.63,4-11.58.72-3,.54-6.19.75-9.29a13.26,13.26,0,0,0-3.71-9.92c-3.09-3.45-6.52-6.61-9.92-9.77-3.06-2.86-8.32-5.53-10.58-9.51h0c-1.33-3.73-.52-4.71-.43-7.06a10.42,10.42,0,0,1,1.79-5.26,4.05,4.05,0,0,1,2.81-1.83,6.56,6.56,0,0,1,1.07-.1,4.68,4.68,0,0,1,2.43.48,50.6,50.6,0,0,1,6.7,4.75c2,1.76,4.41,2.91,5.86,5.33a41.37,41.37,0,0,0,4.46,5.86,9.9,9.9,0,0,1,2,4.52,6.44,6.44,0,0,0,1.83,3.77h0c0-3-.06-5.3,0-7.63.13-3.72.46-7.43.47-11.15a11.9,11.9,0,0,0-.91-5.52c-1.28-2.36-2.58-4.85-4.88-6.51s-4.35-3.85-6.87-5a75.81,75.81,0,0,0-11.58-3.91c-3.73-1-7.58-1.61-11.36-2.51a49.68,49.68,0,0,1-6.18-1.93c-1.41-.54-2.65-1.57-4.07-2.06a13.27,13.27,0,0,1-6.56-5.18c-1-1.39-2.18-2.63-3.25-4-1.72-2.15-3.82-4.11-5-6.51-2.39-4.68-3.17-9.68-1-15.1h0c1.76.38,3.78.23,4.95,1.17,2.75,2.2,6.1,1.85,9.1,2.88,3.56,1.21,7.27,2,10.82,3.23a59.06,59.06,0,0,1,15.34,8.47c5.31,3.85,9.44,8.73,13.64,13.62,1,1.2,2,2.38,3.07,3.57h0a4.09,4.09,0,0,0,.24-2.68c-.82-3-1.94-6-2.52-9.09a120.43,120.43,0,0,0-4.94-17c-1.23-3.52-2.52-7-3.84-10.51-1.19-3.16-3.82-10-3.94-10.28-1.43-3.33-2.89-6.64-4.26-10-.57-1.4-.88-2.9-1.41-4.32A14.23,14.23,0,0,0,344.25,95c-1.79-2.65-3.59-5.31-5.59-7.79a13.45,13.45,0,0,0-3.72-3.07c-4.77-2.7-10.14-3.64-15.36-5-4.57-1.21-9.32-1.69-13.7-3.69s-8.89-3.94-11.8-8.13a14.28,14.28,0,0,1-1.9-3.49,2.58,2.58,0,0,1,1-3.27,21.77,21.77,0,0,1,13.74-3.73c2.21.19,4.4.52,6.61.79h0a41,41,0,0,0-6.16-6.37c-2.32-1.95-4.59-4.09-7.23-5.45-4.37-2.26-9-4-13.57-5.88a22.47,22.47,0,0,0-4.83-1.61c-2.39-.38-4.84-.4-7.2-.57h0c-1.4,1.57-2.88,3.23-4.37,4.88-.26.29-.65.5-.79.83-1,2.36-2.85,3.94-4.72,5.58a34.6,34.6,0,0,1-12.88,7.52,20.37,20.37,0,0,1-7.28.79,42.25,42.25,0,0,1-8-1.83c-1.73-.49-2.19-2.12-1.15-3.63a15,15,0,0,1,1.78-2.2c3-2.94,5.7-6.26,9.07-8.65,3.78-2.66,8.15-4.46,12.27-6.63.53-.28,1.09-.51,1.64-.77h0a43.88,43.88,0,0,0-8.17-1.66c-4.24-.52-8.5-.88-12.73-1.48-4.51-.65-8.92-2.05-13.57-1.36a8.89,8.89,0,0,1-3.4-.24c-5.86-1.49-11.87-1.43-17.82-1.87-4.67-.34-9.38-.22-14.07-.21a33.14,33.14,0,0,0-5.26.44c-3.84.64-7.68,1.29-11.49,2.09-5.11,1.08-10.22,2.18-15.27,3.52-3.38.89-6.82,1.71-9.89,3.56a11.24,11.24,0,0,1-2.13.78c-3,1.06-6.07,2-8.81,3.84-1.61,1.1-3.64,1.58-5.51,2.29a27.32,27.32,0,0,0-4.26,1.55c-4,2.35-7.49,5.54-12.19,6.54a4,4,0,0,0-1.23.7c-1.68,1.09-3.3,2.28-5,3.27a28.34,28.34,0,0,0-6.42,4.7c-2.32,2.38-4.92,4.49-7.27,6.86-3.94,4-7.8,8-11.63,12.1-2.5,2.65-5,5.36-7.38,8.09-4,4.46-8.26,8.66-11.27,13.93-1.56,2.73-3.36,5.31-5.1,7.94-2.83,4.28-6,8.36-8.46,12.87a183.37,183.37,0,0,0-8,17.58c-2,4.92-3.59,10-5.13,15.1-1.61,5.3-3,10.65-4.34,16-.69,2.85-.66,5.88-1.46,8.68-1.3,4.52-1,9.11-1.21,13.67-.06,1.3,0,8.21-.08,9-.23,4.86-.39,9.73-.52,14.6a9.56,9.56,0,0,0,.43,2.15c.54,2.23,1,2.84,2.56,5.06a24.5,24.5,0,0,0,4.32,4.86c3.36,3,7.63,4.5,11.57,6.52a62.85,62.85,0,0,1,10.53,7c2.58,2.06,5.05,4.27,7.53,6.46a16.43,16.43,0,0,1,4.47,6.83c.88,2.42,1.62,4.89,2.38,7.36a7.25,7.25,0,0,1,.22,1.87c0,1,0,2.05,0,3.08,0,1.81.19,3.64,0,5.44-.23,2.72-.88,3.24-3.2,2.76a.79.79,0,0,1-.59-.55c-.76-2.69-1.44-5.3-2.31-7.84A5.13,5.13,0,0,0,67.12,265c-3.48-2.27-6.61-5.18-10.67-6.45a50.4,50.4,0,0,1-14.52-7.47c-2.68-2-5.37-3.89-8.09-5.85h0c-.11.31-.27.51-.23.65,1.15,4.23,2.11,8.54,3.53,12.68s3.52,8.13,5.15,12.25c1.35,3.44,2.44,7,4.75,10,3.64,4.8,7.13,9.66,11.9,13.47a48.54,48.54,0,0,1,5.3,5.51c.88,1,1.43,2.53,2.48,3,2.93,1.2,5.46,3.13,8.74,3.81,4.69,1,9.31,2,14.12,1.73a41,41,0,0,0,7.37-.79,17.8,17.8,0,0,1,6.16-.3c1.79.18,3.61.87,5.33.65,5.7-.73,10.34,1.65,14.2,5.23,2.9,2.69,5.61,5.5,9.07,7.49,2,1.15,1.39,3.43,1.52,5.16.09,1.27-1.37,2.07-2.79,2.47a33.51,33.51,0,0,0-5.59,2.08c-3.62,1.79-7.49,1.8-11.35,1.79-1.89,0-3.77-.64-5.65-.68C99,331.27,91.28,327.35,83.55,323.6ZM110,384.92a.75.75,0,0,0,.88-.39,12.54,12.54,0,0,0,.89-2.36c.79-4,3.58-7.6,2.78-12-.42-2.31-.27-4.72-.84-7a27.6,27.6,0,0,0-2.59-6.07,30.4,30.4,0,0,0-3-4.17c-.68-.87-1.54-1.61-2.28-2.44-3.68-4.06-7-8.4-11.19-12-2.86-2.49-5.63-5.07-8.49-7.56-1.46-1.28-3-2.49-4.75-3.91a.48.48,0,0,0-.79.35,2.31,2.31,0,0,0,.09.65c1.08,3.39,2.26,6.76,3.27,10.17,1.5,5.08,2.75,10.23,4.36,15.29,2.57,8.07,5.26,16.09,10.88,22.95a41.68,41.68,0,0,0,8.15,7.54A9.12,9.12,0,0,0,110,384.92ZM365.74,168.25l.43-.5a11.19,11.19,0,0,0-.95-1.74c-2.36-3-4.69-6-7.17-8.92a41.93,41.93,0,0,0-5.22-5.1,82.25,82.25,0,0,0-7.41-5.47,49.27,49.27,0,0,0-7.5-4.12,97.88,97.88,0,0,0-9.38-3.07c-2.46-.74-4.94-1.48-7.45-2-3.11-.64-6.32-.86-8.82-3.16-.07-.06-.34.09-.67.19h0c.61,4,1.55,7.81,4.37,11,1.93,2.14,3.63,4.49,5.62,6.57a21.49,21.49,0,0,0,4.94,4.11,47.66,47.66,0,0,0,13.23,4.82c5.92,1.22,11.72,3,17.55,4.65C360.16,166.25,362.93,167.31,365.74,168.25ZM36.89,332.66h0c-.15-5.06,1.68-9.46,3.92-13.5,3.14-5.65,2.8-11,.65-16.79s-3.88-11.33-5.71-17c-.65-2-1.1-4.12-1.74-6.68a.42.42,0,0,0-.77-.11,21.65,21.65,0,0,0-1.18,2.19c-.61,1.42-1,3-1.69,4.34a44.16,44.16,0,0,0-4.31,12.32,66.75,66.75,0,0,0-1.45,12.06c0,3,1.3,6.05,2,9.07C28.1,324.55,32.45,328.51,36.89,332.66Zm92.17-8.45h0c-3.07-2.93-5.58-5.38-8.15-7.74-3.75-3.44-7.81-5.79-12.67-4.91a3,3,0,0,1-.85,0c-5.12-.57-10.08.19-15.12,1.23-3.87.81-8,1.86-12,.39-.38-.14-.87.2-1.75.44h0a47,47,0,0,0,4.71,4.45c8.12,5.75,16.51,10.59,26.16,10.73a37,37,0,0,1,5.67.24,16,16,0,0,0,8.4-1C125.47,327.35,127.1,325.77,129.06,324.21ZM387.33,111.07c-1.52,0,.27,0,.27,0a4.86,4.86,0,0,0-.29.79c-.81,10.51-3.11,19.74-9.29,27.85a30.27,30.27,0,0,0-3.71,6.87c-2.8,6.87-1.28,13.94-.67,21.37h0c2.1-2.93,4.07-5.37,5.73-8.05,3-4.83,5.84-9.77,8.61-14.76a27,27,0,0,1,1.92-3.21c2.75-3.71,4.94-7.72,4.89-12.78a32.53,32.53,0,0,0-2.67-13.59C391.41,114,389.63,111.71,387.33,111.07ZM323,57.24h0c-.52-4-1-7.76-1.53-11.56-.14-1.08-.34-2.16-.38-3.24-.2-4.92-2.26-9-5.13-12.95a39.05,39.05,0,0,0-8.55-8.43c-2-1.42-3.63-3.78-7-3.28h0l1.81,2.45a6.82,6.82,0,0,1,1,1.41c1.09,2.95,2.12,5.92,3.17,8.88,1.25,3.51,2.19,7.17,3.84,10.47a45.47,45.47,0,0,0,6.39,9.74,25.92,25.92,0,0,1,3.11,4.45A3.33,3.33,0,0,0,323,57.24ZM69.88,261.67a.38.38,0,0,0,.53-.42,5.2,5.2,0,0,0-1.27-3.55c-3.1-4.36-7.15-7.45-10.66-11.24a21.6,21.6,0,0,0-4.08-3.57c-3.08-2-6.29-3.78-9.47-5.61-4-2.27-7.93-4.5-12.16-6.9h0c.35,3.52.88,6.69,2.83,9.22a26.93,26.93,0,0,0,6.21,6.17c4.51,2.93,9.39,5.27,14.06,8,3.35,1.92,7.3,2.73,10.11,5.69h0A8,8,0,0,0,69.88,261.67ZM297.5,65.12h0c5.17,5.35,11.41,7.06,17.54,8.89a113.91,113.91,0,0,0,11.7,2.4c2.17.41,4.35.71,6.53,1.06h0a5.07,5.07,0,0,0-1.58-2.57c-2.36-2-4.81-3.89-7.14-6a43.75,43.75,0,0,0-12-7.58C307.2,59.11,302,60.33,297.5,65.12ZM4.13,214.28h0c4.57,2.89,7.41,3.44,12.23,2.6,2.1-.37,3.43-1.7,4.4-3.77.59-1.25,1.29-1.22,2.26-2.27,3.38-3.69,3.78-8.42,5.78-12.59,0-.08-.07-.21-.13-.38-1.89-.32-3.81-.67-5.75-1a7,7,0,0,0-5.86,1.52c-3.8,3.32-4.85,5.6-7.62,9.71a42.46,42.46,0,0,1-3.58,4.06C5.25,212.89,4.68,213.62,4.13,214.28ZM358.64,111.8h0c.77-1,1.21-1.31,1.26-1.67.73-5.5,2.87-10.65,3.87-16.13,1.13-6.25,1.19-12.08-.95-18l-2.19-6-.76,0c-.32,1-.69,2-.93,3-.28,1.19-.43,2.41-.65,3.61-.75,3.92-1.57,7.82-2.23,11.75a38.58,38.58,0,0,0,.13,14.21A44.63,44.63,0,0,0,358.64,111.8ZM240.43,51.93l.4,1a35.79,35.79,0,0,0,6,.32c8.54-1,14.69-5.91,19.82-12.41,1-1.3,2-2.65,3-4l-.41-.66A48.26,48.26,0,0,0,240.43,51.93ZM369.06,215.56a.3.3,0,0,0,.49-.3c-1.12-3.72-1-7.8-3.26-11.2-1-1.5-2-3-3.15-4.41-2.8-3.4-5.45-6.93-9.4-9.19a52.23,52.23,0,0,1-4.65-3.41c-.41-.3-.84-.58-1.28-.87a1.09,1.09,0,0,0-1.64.62c-1.39,4.9-.57,7.35,3.29,10.86,2.67,2.44,5.48,4.73,8.15,7.18C361.47,208.37,365.24,212,369.06,215.56ZM176.92,349.85a.38.38,0,0,0-.26-.51c-.81-.2-1.54-.41-2.28-.53-3.85-.67-7.53-.42-10.75,2.13-1.95,1.55-4.06,2.9-5.86,4.59a16.74,16.74,0,0,1-5.86,3.34c-.49.18-1,.41-1.78.78a.39.39,0,0,0,0,.72c2.28.88,4,1.63,5.84,2.17,2,.59,4,1.23,6.1.47,1.83-.67,3.63-1.44,5.45-2.15C172,359.14,176.13,351.73,176.92,349.85Zm98.2-317.2c-3.1-5.52-4.44-11.59-9.84-15.31h0c-1.44,6.19,3.69,14.28,9.84,15.31Zm96.17,174-.61,0h0l.43,2.49h.18v-2.44Z"/><path class="cls-1" d="M128.05,178.39c1.74-.15,3.47-.24,5.2-.43s3.45-.39,5.15-.72,3.42-.54,5.11-1l2.53-.56c.84-.19,1.66-.44,2.5-.66a98.88,98.88,0,0,0,19.16-7.43,95.16,95.16,0,0,0,17.51-10.55l2-1.56,2-1.65c1.32-1.07,2.55-2.26,3.8-3.42a35.73,35.73,0,0,0,6.45-7.52,15.23,15.23,0,0,0,1.8-4.28,10.27,10.27,0,0,0,.1-4.38c-.52-2.92-2.41-5.51-5-6.12s-5.64.54-7.78,2.6-3.51,5.08-4.45,8.25-1.66,6.66-2.5,10l-2.44,10.15-4.87,20.31-9.78,40.63c-1.72,6.79-3.75,13.66-7.1,20.05a41.17,41.17,0,0,1-14.39,16.14,28.83,28.83,0,0,1-10.35,4,28.34,28.34,0,0,1-11.09-.36,31.57,31.57,0,0,1-18.3-11.75,25.54,25.54,0,0,1-2.68-4.89A23.23,23.23,0,0,1,99.09,238a20.17,20.17,0,0,1,1.14-10.89,21.33,21.33,0,0,1,6.33-8.66,19.18,19.18,0,0,1,4.63-2.64,16.37,16.37,0,0,1,5.15-1,16.39,16.39,0,0,0-4.94,1.46,18.53,18.53,0,0,0-4.15,3,19.77,19.77,0,0,0-5.17,8.5c-2,6.4.1,13.3,4.22,18.25a28.2,28.2,0,0,0,7.14,6.59,27.9,27.9,0,0,0,9,3.75,24.54,24.54,0,0,0,9.65.33,25.26,25.26,0,0,0,9-3.49,37.42,37.42,0,0,0,13-14.7c3.13-6,5.1-12.55,6.79-19.24l9.77-40.58,4.87-20.31L178,148.16c.84-3.39,1.55-6.74,2.56-10.23s2.52-7.06,5.44-9.88a14.42,14.42,0,0,1,5.07-3.14,10.84,10.84,0,0,1,6.22-.37,10.06,10.06,0,0,1,3,1.33,11.19,11.19,0,0,1,2.33,2.17,13,13,0,0,1,2.45,5.53,14,14,0,0,1-.14,6,19.56,19.56,0,0,1-2.22,5.32,39.74,39.74,0,0,1-7.08,8.3c-1.3,1.21-2.58,2.44-4,3.56l-2,1.72-2.11,1.62c-1.39,1.1-2.85,2.11-4.32,3.11s-3,1.92-4.48,2.87-3.09,1.74-4.62,2.64-3.14,1.64-4.76,2.37A99.59,99.59,0,0,1,149,177c-.86.15-1.72.33-2.59.45l-2.62.35c-1.73.26-3.49.36-5.23.51s-3.51.11-5.25.18S129.79,178.42,128.05,178.39Z"/><path class="cls-1" d="M215.87,167.52a75,75,0,0,0,14.34.83,57,57,0,0,0,14-2.21,36,36,0,0,0,12.34-6.32,24.28,24.28,0,0,0,4.63-4.93,22.89,22.89,0,0,0,1.68-2.87l.62-1.49L264,149a17.79,17.79,0,0,0-1.18-12.64,12.36,12.36,0,0,0-4.11-4.63A9.59,9.59,0,0,0,253,130.1a5.52,5.52,0,0,0-4.59,2.52,15.42,15.42,0,0,0-1.73,6.11L244.82,153c-2.38,19.08-4.64,38.29-9.12,57.17A196,196,0,0,1,227.09,238a48.82,48.82,0,0,1-7.28,13.06,23.59,23.59,0,0,1-12.93,8.3,17.12,17.12,0,0,1-8,0A13.54,13.54,0,0,1,195,257.7a15,15,0,0,1-3.15-2.67,14.37,14.37,0,0,1-3.52-7.39,11.89,11.89,0,0,1,.17-4.28,11.19,11.19,0,0,1,1.83-3.92,12.15,12.15,0,0,1,3.12-2.91,14.8,14.8,0,0,1,3.79-1.67,19.69,19.69,0,0,1,7.92-.45,23,23,0,0,1,3.84.88,34.76,34.76,0,0,1,3.57,1.51,44.88,44.88,0,0,1,6.38,4c4,2.91,7.58,6.15,11.35,8.93a45.29,45.29,0,0,0,5.83,3.7,30.33,30.33,0,0,0,6.36,2.37,67.23,67.23,0,0,0,13.87,1.89,48.35,48.35,0,0,0,6.93-.24,27.21,27.21,0,0,0,3.32-.6c1.14-.28,2.27-.58,3.38-.92a47.27,47.27,0,0,0,12.59-5.74,38.38,38.38,0,0,0,9.86-9.5,33.6,33.6,0,0,0,3.51-5.82,26.56,26.56,0,0,0,1.78-6.45,33.8,33.8,0,0,0-1-13.49,32.89,32.89,0,0,0-1.05-3.23l-.64-1.58-.77-1.5a10.17,10.17,0,0,0-.86-1.46c-.31-.46-.6-1-.94-1.4a19.52,19.52,0,0,0-2.24-2.48c-3.17-3.06-7.76-5-12.15-4.37a12.42,12.42,0,0,0-9.79,8.43,13,13,0,0,0,3.47,13A13.49,13.49,0,0,1,267.33,207,13.87,13.87,0,0,1,277.77,197a14.93,14.93,0,0,1,7.68.43,19.45,19.45,0,0,1,6.72,3.71,24.26,24.26,0,0,1,2.76,2.7c.41.49.77,1,1.16,1.53a12,12,0,0,1,1.08,1.59l1,1.65.82,1.72a32.7,32.7,0,0,1,1.4,3.55,31.68,31.68,0,0,1,1.34,7.47c.13,1.27.07,2.54.08,3.81s-.15,2.54-.33,3.8a31,31,0,0,1-2.06,7.41,37.38,37.38,0,0,1-3.91,6.53,45.09,45.09,0,0,1-4.94,5.68,43.73,43.73,0,0,1-5.88,4.72,50.73,50.73,0,0,1-13.57,6.2c-1.19.37-2.38.68-3.58,1a29.46,29.46,0,0,1-3.77.69,50.8,50.8,0,0,1-7.48.26,69.64,69.64,0,0,1-14.68-2,34.07,34.07,0,0,1-7.13-2.65,49.37,49.37,0,0,1-6.34-4c-4-2.93-7.54-6.18-11.33-8.92s-7.8-5.14-12.11-5.67a16.09,16.09,0,0,0-6.39.34,11.37,11.37,0,0,0-2.8,1.22,8.7,8.7,0,0,0-2.12,2,7.31,7.31,0,0,0-1.32,5.46A10.81,10.81,0,0,0,193,250a12.21,12.21,0,0,0,1.72,2.56,10,10,0,0,0,5.12,3.15,13.42,13.42,0,0,0,6.27,0,18.43,18.43,0,0,0,6-2.58,22,22,0,0,0,4.9-4.46,45.52,45.52,0,0,0,6.69-12.07,194.83,194.83,0,0,0,8.44-27.28c4.41-18.59,6.66-37.68,9-56.77L243,138.23a18.68,18.68,0,0,1,2.29-7.63,8.84,8.84,0,0,1,3.29-3.07,10.08,10.08,0,0,1,4.23-1.16,13.43,13.43,0,0,1,8,2.2,16.13,16.13,0,0,1,5.38,6,20.76,20.76,0,0,1,2.22,7.58,20.14,20.14,0,0,1-.72,7.83,24.23,24.23,0,0,1-9.27,12.11,38.45,38.45,0,0,1-13.58,5.94,58.42,58.42,0,0,1-14.53,1.38A75.75,75.75,0,0,1,215.87,167.52Z"/><path class="cls-1" d="M207,212.79a42.94,42.94,0,0,1-7.53-7.59c-1-1.49-1.88-3-2.8-4.51a22.82,22.82,0,0,1-2.53-5,7,7,0,0,1,.85-6.13,5.44,5.44,0,0,1,1.23-1.21,4.76,4.76,0,0,1,1.64-.71,4.93,4.93,0,0,1,3.45.49,4.06,4.06,0,0,1,2,3.05,5.83,5.83,0,0,1-.58,3.26,11,11,0,0,1-4.08,4.21,29.91,29.91,0,0,0-4.14,2.88,10.47,10.47,0,0,0-2.56,3.89,9.43,9.43,0,0,0-.55,4.55,2.83,2.83,0,0,0,2.23,2.67,5.31,5.31,0,0,0,3.94-1.14,19.93,19.93,0,0,0,3.27-3.69,25.8,25.8,0,0,1,2-1.92,9.89,9.89,0,0,1,2.4-1.56,7.55,7.55,0,0,1,2.75-.67,4.52,4.52,0,0,1,2.62.69,5.22,5.22,0,0,0-4.69,1.13,13.08,13.08,0,0,0-3.08,3.85,21.27,21.27,0,0,1-3.73,4.14,7.74,7.74,0,0,1-5.92,1.62,5,5,0,0,1-3-1.73,6.18,6.18,0,0,1-1.27-3,11.81,11.81,0,0,1,.68-5.8,12.92,12.92,0,0,1,3.18-4.84,30.43,30.43,0,0,1,4.48-3.15,8.55,8.55,0,0,0,3.2-3.21,3.35,3.35,0,0,0,.36-1.86,1.5,1.5,0,0,0-.76-1.21,2.39,2.39,0,0,0-1.66-.22,2.42,2.42,0,0,0-1.4,1,4.5,4.5,0,0,0-.47,4,20.64,20.64,0,0,0,2.27,4.38c.9,1.5,1.83,3,2.77,4.43A64.78,64.78,0,0,0,207,212.79Z"/></svg>