<svg id="Layer_1" data-name="Layer 1" xmlns="http://www.w3.org/2000/svg" viewBox="0 0 320 320"><defs><style>.cls-1{fill:#f7d75d;}.cls-2{font-size:54.28px;fill:#2a406e;font-family:LavigneDisplay-Regular, Lavigne Display;letter-spacing:0em;}.cls-3{letter-spacing:0.01em;}.cls-4{letter-spacing:0em;}.cls-5{letter-spacing:0em;}.cls-6{fill:#8b8c6a;}.cls-7{fill:#707053;}</style></defs><path class="cls-1" d="M145,105.69c8-3.86,16.35-6.06,24.73-8,6.58-1.55,12.16-5.09,17.69-8.77,3-2,6.05-3.8,9.14-5.57C207.62,77,221.93,82.42,224,98a109.36,109.36,0,0,1,.72,12.68c.12,6.74,1.49,13,5.09,18.89,2.41,3.94,4.25,8.22,6.27,12.39,3.3,6.82,3.66,14.32,4.63,21.63a122.94,122.94,0,0,1,1,16.61c-.06,13.33-4.81,25.37-10.88,37a228.33,228.33,0,0,1-21.7,34.14,88.81,88.81,0,0,1-37.41,28.57c-6.5,2.62-13.19,4.8-19.85,7a38.67,38.67,0,0,0-14.5,8.69,84.81,84.81,0,0,1-9.4,7.85,19.35,19.35,0,0,1-21.4,1.15c-6-3.29-8.38-9.23-8.54-16a66.73,66.73,0,0,0-.54-9.07c-1-6.45-4.43-11.89-8.21-17-6.92-9.41-11.61-19.95-15-31-1.54-5.07-1.49-10.73-1.48-16.13,0-8.45.47-16.92,1.07-25.36a23.15,23.15,0,0,1,2.22-8.32c5.81-11.88,11.73-23.72,18-35.41a50.81,50.81,0,0,1,7.34-9.76c4.07-4.51,8.48-8.73,12.73-13.08A59.59,59.59,0,0,1,137,108.72C139.78,107.74,142.49,106.64,145,105.69Z"/><text class="cls-2" transform="translate(59.3 201.3)">C<tspan class="cls-3" x="31.54" y="0">hi</tspan><tspan class="cls-4" x="79.08" y="0">l</tspan><tspan class="cls-3" x="94.66" y="0">d</tspan><tspan class="cls-5" x="123.64" y="0">r</tspan><tspan class="cls-3" x="144.65" y="0">en</tspan></text><path class="cls-6" d="M253.43-2.89c.37,11.88.56,22.47-1.57,33.07-4,20-13.64,37.08-25.72,53.08C223.28,87,220,89.76,215,90.34c-4,.46-8,1.72-12.41,2.74a33.91,33.91,0,0,1-1.78-5.39c-1.34-8.88-2.37-17.73-1-26.77,1.34-8.69,5.52-15.65,11.49-21.74,8-8.21,16.15-16.34,24.22-24.52Q243,7.1,250.44-.46C251.05-1.08,251.78-1.56,253.43-2.89Z"/><path class="cls-7" d="M317.65,92.76c-1.32,1.07-2.57,2.23-4,3.18-11.55,7.9-22.89,16.17-35.82,21.79-3.17,1.38-6.46,2.48-9.75,3.57A34.43,34.43,0,0,1,238.57,118c-6.47-3.85-12.59-8.29-18.78-12.6-4.2-2.92-8.24-6.08-12.79-9.46,2.68-.8,5.16-1.53,7.63-2.29,11-3.41,22-6.71,33.46-8a94.54,94.54,0,0,1,21.66-.23q17.61,2,35.21,4c2.81.31,5.65.36,8.46.67C315.6,90.22,315.59,90.32,317.65,92.76Z"/></svg>