<svg id="Layer_1" data-name="Layer 1" xmlns="http://www.w3.org/2000/svg" viewBox="0 0 320 320"><defs><style>.cls-1{fill:#f7d75d;}.cls-2{fill:#2a406e;}.cls-3{fill:#8b8c6a;}</style></defs><path class="cls-1" d="M73.26,170.18c.1-9.89,2-19.24,4.13-28.55,1.69-7.3.9-14.59,0-21.89-.5-3.93-.8-7.88-1-11.83-.88-14.15,11.56-25.71,28.1-20.16a122.57,122.57,0,0,1,13,5.51c6.77,3.19,13.7,4.91,21.3,4.21,5.09-.47,10.26-.21,15.4-.17,8.4.06,16,3.38,23.79,6a136.2,136.2,0,0,1,17,7.14c13.23,6.6,22.88,17.23,31.44,29a253.35,253.35,0,0,1,23.32,38.34A98.57,98.57,0,0,1,259.68,229c-.58,7.76-1.69,15.48-2.77,23.18a42.69,42.69,0,0,0,1.53,18.69,95.52,95.52,0,0,1,3.19,13.21c1.39,9.11-2,16.7-9.35,21.85-6.22,4.36-13.29,3.8-20.14.63a72.51,72.51,0,0,0-9.29-3.91c-6.92-2.13-14-1.43-21-.19-12.75,2.28-25.53,1.77-38.14-.3-5.8-1-11.41-3.79-16.77-6.45-8.4-4.17-16.61-8.76-24.71-13.5a25.41,25.41,0,0,1-7.18-6.28c-9-11.62-17.85-23.32-26.43-35.23a56.09,56.09,0,0,1-6.11-12.1c-2.49-6.26-4.53-12.71-6.77-19.08a66.2,66.2,0,0,1-3.4-29.93C72.75,176.35,73,173.12,73.26,170.18Z"/><path class="cls-2" d="M110.49,184.58c0-10.09,5.76-17.86,17.7-17.86,3.09,0,7.54.82,9.44.93v8.68l-1.09.11-.21-.16c-.16-5.49-3.86-8.2-8.36-8.2-9.88,0-12.1,8.09-12.1,16.61,0,10.58,3.85,15.79,11,15.79,4.34,0,7.11-1.84,7.27-5.48.06-1.08.06-1.84.06-2.77s0-1.68-.06-2.6c-.16-1.9-.32-2.44-2.22-2.66a38,38,0,0,0-4.13-.16l-.16-.17.11-1.19h5.53a36.42,36.42,0,0,0,5.65-.38l.16.16c-.11,1.41-.16,2.44-.16,3.91v11.45h-.44c-2.06,0-8.14,1.25-11.34,1.25C116.14,201.84,110.49,195.33,110.49,184.58Z"/><path class="cls-2" d="M143.87,200.32l.17-.16a20.19,20.19,0,0,0,2.76-.22c1-.16,1.09-1.41,1.14-2.33.06-1.74.11-4.35.11-6.35,0-3-.05-7.06-.16-8.9-.06-1.36-.11-2.45-1.3-2.72a16.48,16.48,0,0,0-2.5-.16l-.16-.16.11-1h2.76a27.34,27.34,0,0,0,6-.6l.17.17c-.11,1.51-.22,2.93-.27,4.45-.06,2.06-.11,6.35-.11,7.49,0,2.38,0,6.51.05,7.65s.11,2.39,1.09,2.5c.7.05,2,.16,2.93.16l.16.16-.11,1H144Zm2.88-30.56a3.15,3.15,0,0,1,6.29,0,3.15,3.15,0,1,1-6.29,0Z"/><path class="cls-2" d="M160,200.32l.17-.16a21.83,21.83,0,0,0,2.82-.22c1-.16,1.14-1.36,1.14-2.71,0-1.63,0-3.91,0-6.14v-9.82c0-.76,0-1.47-1-1.57a22.26,22.26,0,0,0-3.09-.22l-.16-.16.11-1h4.12v-2.17c0-8.31,3.53-12.27,8.41-12.27,3.42,0,5.16,1.36,5.16,3.26a4.63,4.63,0,0,1-2.66,3.69l-.92-.54c-.06-3.69-.38-5.16-2-5.16-2.11,0-3.69,1.79-3.69,7.71,0,2.28.11,4,.17,5.48h5.26l.11,1-.16.16c-.93.05-3.42.22-4.56.32-.33.06-.6.17-.6.76,0,2.39,0,5.6,0,7.55,0,3.47,0,6.95.11,9.39.05,1.14.16,2.33,1.13,2.44s3,.22,4,.22l.16.16-.1,1H160.1Z"/><path class="cls-2" d="M180,195.22c0-1.79,0-4.23,0-6.51v-9c-1.19-.16-2.76-.16-3.52-.22l-.17-.16.11-.92c5-.65,6.62-3.53,7.17-8.47h1v8.36H190l.11,1-.16.16c-.92.05-3.37.16-4.51.32a.72.72,0,0,0-.7.82c0,3.74-.11,7.16-.11,9.28,0,1.9,0,6,.11,7.6.16,2.12.6,2.88,1.73,2.88,1.74,0,3.15-1.2,3.15-3.7v-.16h1v.22c0,3.53-2.17,5.1-5,5.1C183.22,201.84,180,200.32,180,195.22Z"/><path class="cls-2" d="M193.16,197.77c0-1.57,1.3-2.93,3-3.69l1,.49a9.09,9.09,0,0,0,0,1.14c0,2.66.7,4.83,4.61,4.83,3.37,0,5.59-1.74,5.59-3.91,0-1.68-1.08-2.88-3.36-3.8-2-.81-3.37-1.36-4.51-1.79-4-1.47-5.75-3.47-5.75-6.57,0-3.42,2.77-6.67,8.41-6.67s7.6,1.95,7.6,3.74c0,1.41-1.41,2.77-2.66,3.42l-1.09-.38c0-2.93-.43-5.48-4.23-5.48-3.31,0-5,1.9-5,3.85,0,1.69,1,2.66,3.53,3.59,2,.75,3.58,1.41,4.66,1.84,3.64,1.52,5.54,3.31,5.54,6.57s-2.77,6.89-9,6.89C195.92,201.84,193.16,200.1,193.16,197.77Z"/><path class="cls-3" d="M86,76.65a38.57,38.57,0,0,0,2.66,7.44c2.15,4.5,4.4,9,6.62,13.43a3.08,3.08,0,0,1-.72,4A37.94,37.94,0,0,1,90,104.38a1.75,1.75,0,0,1-2.51-.74,10.29,10.29,0,0,1-.93-2C83.83,93.73,80.7,86,79.49,77.74c-.23-.17-.34-.33-.46-.33-7.31-.15-14-2.68-20.66-5.33C48.73,68.22,41,61.71,34.27,54A125,125,0,0,1,15.81,26.93C12.71,20.65,9.92,14.21,7,7.83a7.29,7.29,0,0,1-.56-1.69,2.14,2.14,0,0,1,2.6-2.65,3.72,3.72,0,0,1,.87.23c4.46,1.89,8.94,3.73,13.36,5.7a47.53,47.53,0,0,1,11.25,7.64c8.31,7.06,16.33,14.44,22.56,23.46C60.81,45.9,64,51.65,67.47,57.22c2,3.23,4,6.46,6.11,9.63a16,16,0,0,0,4.52,4.72C78,70.74,78,70.18,78,69.64c-.77-4.56-1.43-9.12-.9-13.77a2.73,2.73,0,0,1,1.37-2.38c1.31-.71,2.16-.48,2.47,1,.43,2,.67,4,.94,6a57.92,57.92,0,0,0,3.29,13.11c.53-.49,1-.85,1.37-1.27A101.1,101.1,0,0,0,102.32,51c5.11-9.55,12-17.75,19.63-25.36a103.79,103.79,0,0,1,12.93-11.32A48,48,0,0,1,149.8,6.88c6.31-1.77,12.55-3.81,18.89-5.47A47.74,47.74,0,0,1,186,.12a9.4,9.4,0,0,1,2,.32c1.88.63,2.32,2.1,1.1,3.64A9,9,0,0,1,188,5.19c-5,4.49-10,8.93-14.92,13.48-2.29,2.13-4.38,4.47-6.58,6.69a201.66,201.66,0,0,1-23.8,20.26c-8.82,6.5-17.64,13-26.95,18.78A91.3,91.3,0,0,1,92.43,75.14C90.37,75.72,88.26,76.12,86,76.65Z"/></svg>