<svg id="Layer_1" data-name="Layer 1" xmlns="http://www.w3.org/2000/svg" viewBox="0 0 320 320"><defs><style>.cls-1{fill:#f7d75d;}.cls-2{fill:#2a406e;}.cls-3{fill:#8b8c6a;}.cls-4{fill:#707053;}</style></defs><path class="cls-1" d="M145,105.69c8-3.86,16.35-6.06,24.73-8,6.58-1.55,12.16-5.09,17.69-8.77,3-2,6.05-3.8,9.14-5.57C207.62,77,221.93,82.42,224,98a109.36,109.36,0,0,1,.72,12.68c.12,6.74,1.49,13,5.09,18.89,2.41,3.94,4.25,8.22,6.27,12.39,3.3,6.82,3.66,14.32,4.63,21.63a122.94,122.94,0,0,1,1,16.61c-.06,13.33-4.81,25.37-10.88,37a228.33,228.33,0,0,1-21.7,34.14,88.81,88.81,0,0,1-37.41,28.57c-6.5,2.62-13.19,4.8-19.85,7a38.67,38.67,0,0,0-14.5,8.69,84.81,84.81,0,0,1-9.4,7.85,19.35,19.35,0,0,1-21.4,1.15c-6-3.29-8.38-9.23-8.54-16a66.73,66.73,0,0,0-.54-9.07c-1-6.45-4.43-11.89-8.21-17-6.92-9.41-11.61-19.95-15-31-1.54-5.07-1.49-10.73-1.48-16.13,0-8.45.47-16.92,1.07-25.36a23.15,23.15,0,0,1,2.22-8.32c5.81-11.88,11.73-23.72,18-35.41a50.81,50.81,0,0,1,7.34-9.76c4.07-4.51,8.48-8.73,12.73-13.08A59.59,59.59,0,0,1,137,108.72C139.78,107.74,142.49,106.64,145,105.69Z"/><path class="cls-2" d="M61.42,184.69c0-9.72,5.37-18,17.09-18,3.26,0,6.95.82,9.12.93v8.68l-1.08.11-.22-.16c-.11-5.54-3.75-8.2-7.87-8.2-10,0-11.67,9.23-11.67,17,0,11,3.37,15.41,10.64,15.41,5.53,0,9.33-3.85,9.39-9.71l.16-.16,1.14.1v9.94a10.85,10.85,0,0,0-1.63.1,83.65,83.65,0,0,1-8.95,1.09C65.65,201.84,61.42,194.41,61.42,184.69Z"/><path class="cls-2" d="M91.76,200.32l.16-.16a22.81,22.81,0,0,0,2.88-.22c1-.16,1.14-1.41,1.14-2.33,0-1.74.1-9.18.1-11.83,0-5.7-.05-12.54-.16-17.48,0-1.3-.11-2.55-1.41-2.77a17.1,17.1,0,0,0-2.55-.16l-.16-.16.11-1h3a25.25,25.25,0,0,0,6-.6l.16.16c-.32,4.56-.43,10.1-.43,13.19,0,1.47,0,3.86,0,5.16A8.24,8.24,0,0,1,108,177.8c5.15,0,8.63,2.76,8.63,8.57,0,2.06-.06,5.16-.06,6.19,0,1.57,0,3.15.11,5.1,0,.65,0,2.23,1.09,2.34.48.05,1.95.16,2.6.16l.16.16-.1,1H108.26l-.11-1,.16-.16c1.14-.06,1.79-.11,2.44-.16,1-.06,1.09-1.52,1.14-2.56.06-1.52.11-3.63.11-5.86v-4.5c0-4.4-1-7.55-5.1-7.55-3,0-6.19,2.55-6.35,7.76,0,.76,0,2.61,0,4.35,0,2.17,0,4.72.1,5.86s.11,2.39,1.09,2.5c.76.05,1.68.16,2.6.16l.17.16-.11,1H91.87Z"/><path class="cls-2" d="M123.67,200.32l.16-.16a20.21,20.21,0,0,0,2.77-.22c1-.16,1.09-1.41,1.14-2.33.06-1.74.11-4.35.11-6.35,0-3,0-7.06-.16-8.9-.06-1.36-.11-2.45-1.3-2.72a16.48,16.48,0,0,0-2.5-.16l-.16-.16.1-1h2.77a27.34,27.34,0,0,0,6-.6l.17.17c-.11,1.51-.22,2.93-.28,4.45-.05,2.06-.1,6.35-.1,7.49,0,2.38,0,6.51,0,7.65s.11,2.39,1.09,2.5c.7.05,1.95.16,2.93.16l.16.16-.11,1h-12.7Zm2.88-30.56a3.15,3.15,0,0,1,6.29,0,3.15,3.15,0,1,1-6.29,0Z"/><path class="cls-2" d="M139.3,200.32l.17-.16a19.17,19.17,0,0,0,2.87-.22c1-.16,1.09-1.41,1.14-2.33.06-1.74.11-10.15.11-15.2,0-3.74-.11-11.94-.16-14.11-.06-1.3-.11-2.55-1.41-2.77a17.66,17.66,0,0,0-2.55-.16l-.17-.16.11-1h3a26.15,26.15,0,0,0,5.92-.6l.16.16c-.32,5.32-.49,12.11-.49,16.34v3.75c0,2.87.11,12.48.17,13.62s.1,2.39,1,2.5c.76.05,1.9.16,2.87.16l.17.16-.11,1H139.41Z"/><path class="cls-2" d="M156.29,190.23c0-8.36,4.13-12.43,10.91-12.43a13.94,13.94,0,0,1,5.05,1c-.06-2.93-.11-7.43-.16-10.42-.06-1.3-.11-2.6-1.42-2.82a20,20,0,0,0-2.71-.16l-.16-.16.11-1h3.31a24.57,24.57,0,0,0,5.81-.6l.16.16c-.22,2.66-.44,9.18-.44,11.89l-.05,7.06c0,2.33.05,13.24.11,14.81.05,1.36.22,2.28,1.08,2.45a25.25,25.25,0,0,0,2.83.16l.16.16-.16,1h-3.31a21,21,0,0,0-4.84.54l-.16-.16.22-4.51a7.23,7.23,0,0,1-7,4.67C159.55,201.84,156.29,197.77,156.29,190.23Zm15.63,5.1a22.22,22.22,0,0,0,.38-4.62V185.4c0-.93,0-2.39-.05-3.37-.06-1.41-.65-1.9-1.85-2.39a8.87,8.87,0,0,0-2.93-.49c-4.12,0-6.29,3-6.29,11.4,0,4.72.65,9.66,5,9.66C169.16,200.21,171.16,198.15,171.92,195.33Z"/><path class="cls-2" d="M184.41,200.32l.16-.16a20.21,20.21,0,0,0,2.77-.22c1-.16,1.08-1.41,1.14-2.33.05-1.74.1-4.35.1-6.35,0-3-.05-7.11-.16-8.9,0-1.36-.11-2.45-1.3-2.72a16.3,16.3,0,0,0-2.5-.16l-.16-.16.11-1h2.77a27.16,27.16,0,0,0,5.91-.6l.17.17c-.11.92-.71,6.24-.76,6.83,1.3-2.87,4-6.94,7.49-6.94,2.22,0,3.42,1.46,3.42,3.9l-.49.55h-2.55c-5.54,0-7.44,2.11-7.44,6v2c0,2.27,0,6,0,7.11s.11,2.38,1.09,2.49c.71.11,3.2.33,3.85.33l.17.16-.11,1H184.51Z"/><path class="cls-2" d="M206,190c0-7.16,4.29-12.15,11.34-12.15,6,0,8.14,3.42,8.14,8a14.33,14.33,0,0,1-.16,1.84l-.65.66h-14v.7c0,6.62,2.06,11.35,7.22,11.35a7.56,7.56,0,0,0,7-3.86l.87.54c-1.85,3.42-4.67,4.78-8.63,4.78C209.81,201.84,206,196.58,206,190Zm14.87-3.41c.05-.55.05-1,.05-1.52,0-3.15-.81-5.87-3.69-5.87-3.85,0-6,3.37-6.45,8.2Z"/><path class="cls-2" d="M229.89,200.32l.16-.16a22.53,22.53,0,0,0,2.72-.22c1-.16,1.08-1.41,1.14-2.33.05-1.74.1-4.35.1-6.35,0-3-.1-7.11-.16-8.9,0-1.36-.11-2.45-1.3-2.72a16.3,16.3,0,0,0-2.5-.16l-.16-.16.11-1h2.44a23.35,23.35,0,0,0,5.92-.6l.16.17c-.06.38-.22,4.07-.22,4.34a8.26,8.26,0,0,1,7.76-4.45c5.05,0,8.52,2.76,8.52,8.57,0,2.06-.05,5.16-.05,6.19,0,1.57,0,3.15.11,5.1.05.65,0,2.23,1.08,2.34.49.05,2,.16,2.61.16l.16.16-.11,1H246.23l-.11-1,.16-.16c1.14-.06,1.79-.11,2.44-.16,1-.06,1.09-1.52,1.14-2.56.06-1.52.11-3.63.11-5.86v-4.5c0-4.4-1-7.55-5.1-7.55-3.09,0-6.19,2.45-6.3,7.17,0,1.35-.11,3.2-.11,5,0,2.06.06,4.67.11,5.81s.11,2.39,1.09,2.5c.7.05,1.74.16,2.66.16l.16.16-.11,1H230Z"/><path class="cls-3" d="M253.43-2.89c.37,11.88.56,22.47-1.57,33.07-4,20-13.64,37.08-25.72,53.08C223.28,87,220,89.76,215,90.34c-4,.46-8,1.72-12.41,2.74a33.91,33.91,0,0,1-1.78-5.39c-1.34-8.88-2.37-17.73-1-26.77,1.34-8.69,5.52-15.65,11.49-21.74,8-8.21,16.15-16.34,24.22-24.52Q243,7.1,250.44-.46C251.05-1.08,251.78-1.56,253.43-2.89Z"/><path class="cls-4" d="M317.65,92.76c-1.32,1.07-2.57,2.23-4,3.18-11.55,7.9-22.89,16.17-35.82,21.79-3.17,1.38-6.46,2.48-9.75,3.57A34.43,34.43,0,0,1,238.57,118c-6.47-3.85-12.59-8.29-18.78-12.6-4.2-2.92-8.24-6.08-12.79-9.46,2.68-.8,5.16-1.53,7.63-2.29,11-3.41,22-6.71,33.46-8a94.54,94.54,0,0,1,21.66-.23q17.61,2,35.21,4c2.81.31,5.65.36,8.46.67C315.6,90.22,315.59,90.32,317.65,92.76Z"/></svg>