<svg id="Layer_1" data-name="Layer 1" xmlns="http://www.w3.org/2000/svg" viewBox="0 0 320 320"><defs><style>.cls-1{fill:#45b748;}.cls-2{fill:#f7d75d;}.cls-3{fill:#fff7e9;}.cls-4{fill:#fd3;}.cls-5{fill:#f7ce03;}.cls-6{fill:#fcd901;}.cls-7{fill:#f2ca03;}.cls-8{fill:#f7ce06;}.cls-9{fill:#2a406e;}</style></defs><path class="cls-1" d="M85.64,205.15c-.39-.08-.79-.14-1.19-.21a7.86,7.86,0,0,0,1.12.57Z"/><circle class="cls-2" cx="159.32" cy="184.28" r="115.16"/><circle class="cls-3" cx="161.13" cy="184.07" r="104.03" transform="translate(-82.96 167.85) rotate(-45)"/><path class="cls-4" d="M99.6,235.41l47.2-38.18s8.91-6.48,9.42,5.57v56.65s1.07,26.34-20.44,18.82S73.82,256.26,99.6,235.41Z"/><path class="cls-5" d="M162.14,261.38l-.84-60.7s.42-11,10.2-4l46.56,36.86s19.35,13.59.14,25.86S162.6,294.53,162.14,261.38Z"/><path class="cls-6" d="M221.11,229.33l-47.94-37.25s-8.34-7.21,3.27-10.45l57.64-13.42s22.93-6.55,20.51,16.11S247.29,249.67,221.11,229.33Z"/><path class="cls-7" d="M234.83,163.33l-58.82,15s-10.8,2.17-6.24-9l24.16-53.73s9.46-22.16,25.88-6.35S267,155.12,234.83,163.33Z"/><path class="cls-8" d="M127.9,114.3l27.17,54.3s5.44,9.58,10.89-1.17L190.73,114s10.55-21.66-12.15-23.72S113.07,84.65,127.9,114.3Z"/><path class="cls-2" d="M85,163.61l58.86,14.87s10.81,2.15,6.22-9l-24.3-53.67s-9.52-22.13-25.9-6.28S52.83,155.48,85,163.61Z"/><path class="cls-6" d="M97,229.64l48.31-36.76s8.41-7.12-3.17-10.48L85.07,168s-23.24-6.35-21,16.34S70.65,249.71,97,229.64Z"/><path class="cls-3" d="M160,167.33s9.35-17.7,3-22.17-11.54,4.25-8.39,10C159.37,163.86,160,167.33,160,167.33Z"/><path class="cls-3" d="M175.64,187.81s16.91,10.7,21.87,4.74-3.34-11.83-9.35-9.15C179.15,187.43,175.64,187.81,175.64,187.81Z"/><path class="cls-3" d="M167.22,199.23s15.36,12.84,11.19,19.38-12.29.43-11.57-6.11C167.93,202.69,167.22,199.23,167.22,199.23Z"/><path class="cls-3" d="M143.66,188.16s-15.59,12.57-21.19,7.2,2-12.13,8.25-10.15C140.13,188.19,143.66,188.16,143.66,188.16Z"/><path class="cls-9" d="M81,200.16l.16-.16c.65,0,2.93-.11,3.75-.22,1-.11,1.24-1.74,1.3-2.5.16-4.23.16-8.57.16-12.92,0-3.9,0-11.5-.11-15.79H82.5c-3,0-6.62,1.14-7.27,6.08-.06.54-.17,1.52-.17,1.84l-.21.17-1.09-.11v-9.28h30.12v9.28l-1.08.11-.22-.17c0-.32-.11-1.3-.16-1.84-.65-4.94-4.24-6.08-7.28-6.08H91.4c-.05,4.29-.11,11.89-.11,15.79,0,4.35,0,8.69.16,12.92,0,.76.22,2.39,1.25,2.5.82.11,3.1.22,3.8.22l.17.16-.17,1.14H81.14Z"/><path class="cls-9" d="M105.41,200.32l.16-.16a22.64,22.64,0,0,0,2.87-.22c1-.16,1.14-1.41,1.14-2.33.06-1.74.11-9.18.11-11.83,0-5.7,0-12.54-.16-17.48,0-1.3-.11-2.55-1.41-2.77a17.1,17.1,0,0,0-2.55-.16l-.16-.16.1-1h3a25.31,25.31,0,0,0,6-.6l.16.16c-.32,4.56-.43,10.1-.43,13.19,0,1.47-.06,3.86-.06,5.16a8.26,8.26,0,0,1,7.49-4.34c5.16,0,8.63,2.76,8.63,8.57,0,2.06,0,5.16,0,6.19,0,1.57,0,3.15.11,5.1.05.65,0,2.23,1.08,2.34.49.05,2,.16,2.61.16l.16.16-.11,1H121.91l-.11-1,.16-.16c1.14-.06,1.79-.11,2.44-.16,1-.06,1.09-1.52,1.14-2.56.06-1.52.11-3.63.11-5.86v-4.5c0-4.4-1-7.55-5.1-7.55-3,0-6.19,2.55-6.35,7.76-.06.76-.06,2.61-.06,4.35,0,2.17.06,4.72.11,5.86s.11,2.39,1.09,2.5c.76.05,1.68.16,2.6.16l.17.16-.11,1H105.51Z"/><path class="cls-9" d="M137.92,190c0-7.16,4.28-12.15,11.34-12.15,6,0,8.14,3.42,8.14,8a14.33,14.33,0,0,1-.16,1.84l-.65.66h-14v.7c0,6.62,2.06,11.35,7.22,11.35a7.56,7.56,0,0,0,7-3.86l.87.54c-1.85,3.42-4.67,4.78-8.63,4.78C141.71,201.84,137.92,196.58,137.92,190Zm14.87-3.41c.05-.55.05-1,.05-1.52,0-3.15-.81-5.87-3.69-5.87-3.85,0-6,3.37-6.46,8.2Z"/><path class="cls-9" d="M171.51,200.16l.17-.16c.65,0,2.11-.06,3-.17s1.14-1.79,1.19-2.55c.16-4.23.16-8.57.16-12.92,0-3.36,0-9.22-.16-13,0-.82-.27-2.5-1.19-2.61s-2.39-.16-3-.16l-.17-.16.17-1.14h14.16c7.17,0,10.42,2.71,10.42,7.7,0,4.45-3.85,7.22-7.54,8v.22c4.45.54,9.23,3.31,9.23,8.85,0,5.21-3.53,9.28-11.57,9.28h-14.7Zm12.38-17.64a13.63,13.63,0,0,0,3.58-.33c2.82-.92,3.74-3.74,3.74-6.89,0-3.75-1.35-6.73-6-6.73H181v14ZM186.11,200c5.16,0,6.57-3.64,6.57-8,0-3.64-1.52-7.17-5-8a20.35,20.35,0,0,0-3.26-.22H181V200Z"/><path class="cls-9" d="M201.2,196.68c0-3.69,2.82-6.56,10.58-6.56H214v-5.27c0-3-.87-5.75-4.13-5.75-2.49,0-3.25,1.68-3.25,4.78V185l-.82.48c-1.62-.43-3.36-1.95-3.36-3.63,0-1.9,2.17-4.07,7.33-4.07,6.13,0,8.84,2.82,8.84,8.36,0,2.65-.11,5.31-.11,7.76,0,1.46,0,2.82.06,4.12.11,1.79.43,2.34,1.36,2.34s1.73-.82,1.73-3v-.76h1v1c0,3.09-1.3,4.18-3.74,4.18s-4.56-1.57-4.83-5.1a6.82,6.82,0,0,1-7,5.1C203.59,201.84,201.2,200.16,201.2,196.68ZM214,192.23v-.81h-2c-3.8,0-6,1.57-6,5.16,0,2.22.92,3.36,2.44,3.36C211.4,199.94,214,197,214,192.23Z"/><path class="cls-9" d="M225.68,200.32l.16-.16a20.21,20.21,0,0,0,2.77-.22c1-.16,1.09-1.41,1.14-2.33.05-1.74.11-4.35.11-6.35,0-3-.06-7.11-.16-8.9-.06-1.36-.11-2.45-1.31-2.72a16.25,16.25,0,0,0-2.49-.16l-.17-.16.11-1h2.77a27.26,27.26,0,0,0,5.92-.6l.16.17c-.11.92-.71,6.24-.76,6.83,1.3-2.87,4-6.94,7.49-6.94,2.22,0,3.42,1.46,3.42,3.9l-.49.55H241.8c-5.54,0-7.44,2.11-7.44,6v2c0,2.27,0,6,.06,7.11s.11,2.38,1.08,2.49c.71.11,3.21.33,3.86.33l.16.16-.11,1H225.79Z"/></svg>