<svg id="Layer_1" data-name="Layer 1" xmlns="http://www.w3.org/2000/svg" viewBox="0 0 320 320"><defs><style>.cls-1{fill:#f7d75d;}.cls-2{font-size:54.28px;fill:#2a406e;font-family:LavigneDisplay-Regular, Lavigne Display;letter-spacing:0.01em;}.cls-3{letter-spacing:0em;}.cls-4{letter-spacing:0.01em;}.cls-5{fill:#8b8c6a;}</style></defs><path class="cls-1" d="M73.26,170.18c.1-9.89,2-19.24,4.13-28.55,1.69-7.3.9-14.59,0-21.89-.5-3.93-.8-7.88-1-11.83-.88-14.15,11.56-25.71,28.1-20.16a122.57,122.57,0,0,1,13,5.51c6.77,3.19,13.7,4.91,21.3,4.21,5.09-.47,10.26-.21,15.4-.17,8.4.06,16,3.38,23.79,6a136.2,136.2,0,0,1,17,7.14c13.23,6.6,22.88,17.23,31.44,29a253.35,253.35,0,0,1,23.32,38.34A98.57,98.57,0,0,1,259.68,229c-.58,7.76-1.69,15.48-2.77,23.18a42.69,42.69,0,0,0,1.53,18.69,95.52,95.52,0,0,1,3.19,13.21c1.39,9.11-2,16.7-9.35,21.85-6.22,4.36-13.29,3.8-20.14.63a72.51,72.51,0,0,0-9.29-3.91c-6.92-2.13-14-1.43-21-.19-12.75,2.28-25.53,1.77-38.14-.3-5.8-1-11.41-3.79-16.77-6.45-8.4-4.17-16.61-8.76-24.71-13.5a25.41,25.41,0,0,1-7.18-6.28c-9-11.62-17.85-23.32-26.43-35.23a56.09,56.09,0,0,1-6.11-12.1c-2.49-6.26-4.53-12.71-6.77-19.08a66.2,66.2,0,0,1-3.4-29.93C72.75,176.35,73,173.12,73.26,170.18Z"/><text class="cls-2" transform="translate(108.38 201.3)">Gif<tspan class="cls-3" x="67.08" y="0">t</tspan><tspan class="cls-4" x="83.42" y="0">s</tspan></text><path class="cls-5" d="M86,76.65a38.57,38.57,0,0,0,2.66,7.44c2.15,4.5,4.4,9,6.62,13.43a3.08,3.08,0,0,1-.72,4A37.94,37.94,0,0,1,90,104.38a1.75,1.75,0,0,1-2.51-.74,10.29,10.29,0,0,1-.93-2C83.83,93.73,80.7,86,79.49,77.74c-.23-.17-.34-.33-.46-.33-7.31-.15-14-2.68-20.66-5.33C48.73,68.22,41,61.71,34.27,54A125,125,0,0,1,15.81,26.93C12.71,20.65,9.92,14.21,7,7.83a7.29,7.29,0,0,1-.56-1.69,2.14,2.14,0,0,1,2.6-2.65,3.72,3.72,0,0,1,.87.23c4.46,1.89,8.94,3.73,13.36,5.7a47.53,47.53,0,0,1,11.25,7.64c8.31,7.06,16.33,14.44,22.56,23.46C60.81,45.9,64,51.65,67.47,57.22c2,3.23,4,6.46,6.11,9.63a16,16,0,0,0,4.52,4.72C78,70.74,78,70.18,78,69.64c-.77-4.56-1.43-9.12-.9-13.77a2.73,2.73,0,0,1,1.37-2.38c1.31-.71,2.16-.48,2.47,1,.43,2,.67,4,.94,6a57.92,57.92,0,0,0,3.29,13.11c.53-.49,1-.85,1.37-1.27A101.1,101.1,0,0,0,102.32,51c5.11-9.55,12-17.75,19.63-25.36a103.79,103.79,0,0,1,12.93-11.32A48,48,0,0,1,149.8,6.88c6.31-1.77,12.55-3.81,18.89-5.47A47.74,47.74,0,0,1,186,.12a9.4,9.4,0,0,1,2,.32c1.88.63,2.32,2.1,1.1,3.64A9,9,0,0,1,188,5.19c-5,4.49-10,8.93-14.92,13.48-2.29,2.13-4.38,4.47-6.58,6.69a201.66,201.66,0,0,1-23.8,20.26c-8.82,6.5-17.64,13-26.95,18.78A91.3,91.3,0,0,1,92.43,75.14C90.37,75.72,88.26,76.12,86,76.65Z"/></svg>