<svg id="Layer_1" data-name="Layer 1" xmlns="http://www.w3.org/2000/svg" viewBox="0 0 320 320"><defs><style>.cls-1{fill:#45b748;}.cls-2{fill:#f7d75d;}.cls-3{fill:#fff7e9;}.cls-4{fill:#fd3;}.cls-5{fill:#f7ce03;}.cls-6{fill:#fcd901;}.cls-7{fill:#f2ca03;}.cls-8{fill:#f7ce06;}.cls-9{font-size:54.28px;fill:#2a406e;font-family:LavigneDisplay-Regular, Lavigne Display;letter-spacing:0em;}.cls-10{letter-spacing:0.01em;}.cls-11{letter-spacing:0.02em;}.cls-12{letter-spacing:0.01em;}</style></defs><path class="cls-1" d="M85.64,205.15c-.39-.08-.79-.14-1.19-.21a7.86,7.86,0,0,0,1.12.57Z"/><circle class="cls-2" cx="159.32" cy="184.28" r="115.16"/><circle class="cls-3" cx="161.13" cy="184.07" r="104.03" transform="translate(-82.96 167.85) rotate(-45)"/><path class="cls-4" d="M99.6,235.41l47.2-38.18s8.91-6.48,9.42,5.57v56.65s1.07,26.34-20.44,18.82S73.82,256.26,99.6,235.41Z"/><path class="cls-5" d="M162.14,261.38l-.84-60.7s.42-11,10.2-4l46.56,36.86s19.35,13.59.14,25.86S162.6,294.53,162.14,261.38Z"/><path class="cls-6" d="M221.11,229.33l-47.94-37.25s-8.34-7.21,3.27-10.45l57.64-13.42s22.93-6.55,20.51,16.11S247.29,249.67,221.11,229.33Z"/><path class="cls-7" d="M234.83,163.33l-58.82,15s-10.8,2.17-6.24-9l24.16-53.73s9.46-22.16,25.88-6.35S267,155.12,234.83,163.33Z"/><path class="cls-8" d="M127.9,114.3l27.17,54.3s5.44,9.58,10.89-1.17L190.73,114s10.55-21.66-12.15-23.72S113.07,84.65,127.9,114.3Z"/><path class="cls-2" d="M85,163.61l58.86,14.87s10.81,2.15,6.22-9l-24.3-53.67s-9.52-22.13-25.9-6.28S52.83,155.48,85,163.61Z"/><path class="cls-6" d="M97,229.64l48.31-36.76s8.41-7.12-3.17-10.48L85.07,168s-23.24-6.35-21,16.34S70.65,249.71,97,229.64Z"/><path class="cls-3" d="M160,167.33s9.35-17.7,3-22.17-11.54,4.25-8.39,10C159.37,163.86,160,167.33,160,167.33Z"/><path class="cls-3" d="M175.64,187.81s16.91,10.7,21.87,4.74-3.34-11.83-9.35-9.15C179.15,187.43,175.64,187.81,175.64,187.81Z"/><path class="cls-3" d="M167.22,199.23s15.36,12.84,11.19,19.38-12.29.43-11.57-6.11C167.93,202.69,167.22,199.23,167.22,199.23Z"/><path class="cls-3" d="M143.66,188.16s-15.59,12.57-21.19,7.2,2-12.13,8.25-10.15C140.13,188.19,143.66,188.16,143.66,188.16Z"/><text class="cls-9" transform="translate(73.33 201.3)">T<tspan class="cls-10" x="31.16" y="0">he </tspan><tspan class="cls-11" x="95.8" y="0">B</tspan><tspan class="cls-12" x="126.73" y="0">ar</tspan></text></svg>